<?xml version="1.0" encoding="UTF-8"?>
<svg version="1.1" xmlns="http://www.w3.org/2000/svg" width="260" height="194">
<path d="M0 0 C85.8 0 171.6 0 260 0 C260 64.02 260 128.04 260 194 C174.2 194 88.4 194 0 194 C0 129.98 0 65.96 0 0 Z " fill="#FCFCFC" transform="translate(0,0)"/>
<path d="M0 0 C85.8 0 171.6 0 260 0 C260 64.02 260 128.04 260 194 C174.2 194 88.4 194 0 194 C0 129.98 0 65.96 0 0 Z M11 50 C10.9175 71.388125 10.835 92.77625 10.75 114.8125 C10.71358398 121.57210205 10.67716797 128.3317041 10.63964844 135.29614258 C10.62627278 141.34218189 10.62627278 141.34218189 10.6182251 147.38822937 C10.61207202 150.08672633 10.59946934 152.78448173 10.57769775 155.48283386 C10.545204 159.5639759 10.54437181 163.64455914 10.54589844 167.72583008 C10.531506 168.93292287 10.51711357 170.14001566 10.502285 171.38368702 C10.50779499 172.47936843 10.51330498 173.57504984 10.51898193 174.70393372 C10.51529476 175.65983304 10.51160759 176.61573236 10.50780869 177.60059834 C10.82190067 180.06050057 10.82190067 180.06050057 12.45315838 181.80761528 C16.33636366 183.62566105 19.99259708 183.40952966 24.23048401 183.3742218 C25.17508561 183.37819621 26.1196872 183.38217061 27.09291309 183.38626546 C30.26595145 183.39590897 33.43854624 183.3840578 36.61157227 183.37231445 C38.88312954 183.37474172 41.15468576 183.3784604 43.42623901 183.38337708 C49.6016833 183.39279805 55.77696944 183.3833507 61.9524014 183.37004495 C68.40657663 183.35874732 74.86074388 183.36283661 81.31492615 183.36479187 C92.15358427 183.36567532 102.9921705 183.35465394 113.83081055 183.33618164 C124.98707974 183.31717296 136.14327631 183.31009522 147.29956055 183.31567383 C160.73875167 183.32237409 174.1778888 183.31909098 187.61707878 183.30657005 C192.75299615 183.30191715 197.88889379 183.30105319 203.0248127 183.3031559 C209.06828579 183.30503492 215.11166528 183.29696467 221.15511703 183.2810955 C223.37757289 183.27684101 225.60003822 183.27600988 227.82249641 183.27878571 C230.84726803 183.28199136 233.87175709 183.2729666 236.89649963 183.26069641 C237.78384169 183.26447573 238.67118374 183.26825506 239.58541495 183.27214891 C244.58964498 183.24811689 244.58964498 183.24811689 249 181 C249.4476863 178.61417152 249.4476863 178.61417152 249.36076355 175.78622437 C249.36489604 174.68352392 249.36902853 173.58082348 249.37328625 172.44470787 C249.36249192 171.22464861 249.3516976 170.00458935 249.34057617 168.74755859 C249.34093778 167.4488212 249.34129938 166.15008381 249.34167194 164.81199074 C249.34235055 161.2918781 249.32493585 157.77207005 249.30384064 154.25202942 C249.28678339 150.95163804 249.28595279 147.65126032 249.28381348 144.35083008 C249.26805781 134.69217955 249.2261745 125.03358595 249.1875 115.375 C249.0946875 83.014375 249.0946875 83.014375 249 50 C170.46 50 91.92 50 11 50 Z " fill="#020202" transform="translate(0,0)"/>
<path d="M0 0 C1.26053696 -0.00426498 2.52107391 -0.00852997 3.81980896 -0.01292419 C5.22456363 -0.01257465 6.62931828 -0.0121131 8.03407288 -0.0115509 C9.50731492 -0.01454168 10.98055617 -0.01794402 12.45379639 -0.02172852 C16.46202019 -0.03058077 20.47022267 -0.03290714 24.47845531 -0.0335443 C27.82104169 -0.03449243 31.16362307 -0.0381696 34.50620753 -0.0417164 C42.39017302 -0.04986552 50.27412709 -0.0523002 58.15809631 -0.05158997 C66.29921562 -0.05098896 74.44026871 -0.06154428 82.58137125 -0.07733363 C89.56399407 -0.09039511 96.54659522 -0.09577445 103.52923018 -0.09513456 C107.70272717 -0.09487917 111.87616533 -0.09775272 116.04965019 -0.10831261 C119.9738524 -0.11797029 123.89793927 -0.11808888 127.82214546 -0.11079597 C129.26412753 -0.10974724 130.70611669 -0.11213007 132.14808655 -0.11815643 C134.11311425 -0.12583822 136.078181 -0.12004952 138.04321289 -0.11352539 C139.69439574 -0.11434254 139.69439574 -0.11434254 141.37893581 -0.1151762 C144.08509827 0.13371277 144.08509827 0.13371277 147.08509827 2.13371277 C147.47391266 5.17942548 147.719721 7.21043786 145.93885803 9.80130959 C143.28023823 11.71221172 141.30675239 11.51131332 138.04994202 11.5146637 C136.7880304 11.52312317 135.52611877 11.53158264 134.22596741 11.54029846 C132.82484308 11.53446536 131.42372001 11.52832084 130.02259827 11.52189636 C128.54920563 11.52596079 127.07581605 11.53130194 125.60243225 11.53782654 C121.59832815 11.55152144 117.59445552 11.54619262 113.59034729 11.53668928 C109.40369535 11.5291039 105.21706347 11.53613517 101.03041077 11.54084778 C93.9991245 11.54630861 86.9679327 11.53910515 79.93666077 11.52482605 C71.80285572 11.50849887 63.66927626 11.51378715 55.53547668 11.53030527 C48.55706346 11.54391083 41.57871822 11.54584436 34.60029602 11.53798926 C30.43015342 11.53330761 26.2601169 11.53270134 22.08998108 11.54259872 C18.16979898 11.55125264 14.24990825 11.54527559 10.32975769 11.52791595 C8.88939396 11.52394264 7.4490058 11.52509958 6.00865173 11.53170395 C4.04586145 11.53987535 2.08301771 11.52782147 0.12025452 11.5146637 C-1.5289801 11.51296708 -1.5289801 11.51296708 -3.21153259 11.51123619 C-5.91490173 11.13371277 -5.91490173 11.13371277 -7.80381775 9.83646584 C-8.91490173 8.13371277 -8.91490173 8.13371277 -8.72740173 4.50871277 C-8.45927673 3.39496277 -8.19115173 2.28121277 -7.91490173 1.13371277 C-5.19222853 -0.22762383 -3.04922602 0.00464374 0 0 Z " fill="#000000" transform="translate(37.91490173339844,73.86628723144531)"/>
<path d="M0 0 C1.39553352 -0.01029488 1.39553352 -0.01029488 2.81925964 -0.02079773 C5.90057555 -0.03912795 8.98138531 -0.03521928 12.06274414 -0.02954102 C14.20121935 -0.03409991 16.33969308 -0.0394046 18.47816467 -0.04542542 C22.96304267 -0.05436882 27.44774272 -0.05191947 31.93261719 -0.04199219 C37.68423441 -0.03050258 43.43523771 -0.05070796 49.18677425 -0.07990932 C53.60396741 -0.09824275 58.02101269 -0.09798453 62.43823433 -0.0922718 C64.5589541 -0.09211823 66.67968367 -0.09819215 68.80036736 -0.11056328 C71.76444031 -0.12541686 74.72736945 -0.11483735 77.69140625 -0.09765625 C78.56998291 -0.10732422 79.44855957 -0.11699219 80.35375977 -0.12695312 C86.2752015 -0.05496563 86.2752015 -0.05496563 89.49440002 2.27134705 C90.91040039 4.40405273 90.91040039 4.40405273 90.78540039 7.02905273 C89.91040039 9.40405273 89.91040039 9.40405273 87.91040039 11.40405273 C84.85293007 11.60828255 81.88566801 11.68717735 78.82666016 11.67871094 C77.88509064 11.68382187 76.94352112 11.6889328 75.97341919 11.69419861 C72.84948434 11.70814071 69.72576897 11.70713436 66.60180664 11.70483398 C64.43708717 11.7087184 62.27236846 11.71305254 60.10765076 11.71781921 C55.56555717 11.72529139 51.02354129 11.72498295 46.48144531 11.71972656 C40.65245973 11.71393093 34.82379179 11.73086053 28.99485874 11.75407124 C24.52282339 11.76878253 20.05086499 11.76968382 15.57880974 11.76656151 C13.42935494 11.76707604 11.27989599 11.7723384 9.13046455 11.78237343 C6.12794308 11.7946699 3.12604617 11.78798694 0.12353516 11.77636719 C-0.76955856 11.78401093 -1.66265228 11.79165466 -2.58280945 11.79953003 C-3.80891937 11.78900856 -3.80891937 11.78900856 -5.05979919 11.77827454 C-6.1247217 11.77852615 -6.1247217 11.77852615 -7.2111578 11.77878284 C-9.67110907 11.28804749 -10.5653642 10.36136144 -12.08959961 8.40405273 C-12.46459961 5.90405273 -12.46459961 5.90405273 -12.08959961 3.40405273 C-8.87594938 -0.71015129 -4.83831396 -0.02473355 0 0 Z " fill="#000000" transform="translate(41.089599609375,108.595947265625)"/>
<path d="M0 0 C1.69206825 -0.01902626 1.69206825 -0.01902626 3.4183197 -0.03843689 C4.63709305 -0.03550125 5.85586639 -0.03256561 7.11157227 -0.02954102 C8.36301529 -0.03478287 9.61445831 -0.04002472 10.90382385 -0.04542542 C13.55290061 -0.05185494 16.20111791 -0.0519321 18.85009766 -0.04199219 C22.24104411 -0.03050676 25.63094854 -0.05070407 29.02175808 -0.07990932 C32.26003481 -0.10269268 35.49823415 -0.09580382 38.73657227 -0.09204102 C40.56169594 -0.10889198 40.56169594 -0.10889198 42.4236908 -0.12608337 C44.12048729 -0.11201195 44.12048729 -0.11201195 45.8515625 -0.09765625 C47.34356422 -0.097407 47.34356422 -0.097407 48.8657074 -0.09715271 C52.21584565 0.54256308 53.43454615 1.73005694 55.49047852 4.40405273 C55.32897647 7.79559569 54.90751094 8.98702031 52.49047852 11.40405273 C50.02355957 11.65802002 50.02355957 11.65802002 46.87915039 11.6628418 C45.70453247 11.66914612 44.52991455 11.67545044 43.31970215 11.6819458 C41.4087677 11.67587311 41.4087677 11.67587311 39.45922852 11.66967773 C38.15723511 11.67159119 36.8552417 11.67350464 35.51379395 11.67547607 C32.75646223 11.67842664 29.99926003 11.67413197 27.24194336 11.66479492 C23.70420778 11.65340027 20.16677565 11.65996012 16.62905121 11.67193985 C13.25991918 11.68089667 9.89086918 11.67462913 6.52172852 11.66967773 C5.24777222 11.6737262 3.97381592 11.67777466 2.66125488 11.6819458 C1.48663696 11.67564148 0.31201904 11.66933716 -0.89819336 11.6628418 C-1.93584839 11.66125061 -2.97350342 11.65965942 -4.04260254 11.65802002 C-6.50952148 11.40405273 -6.50952148 11.40405273 -8.50952148 9.40405273 C-9.06416404 4.19041269 -9.06416404 4.19041269 -7.33433533 1.73789978 C-4.82102867 -0.09920085 -3.09849331 0.01684433 0 0 Z " fill="#040404" transform="translate(37.509521484375,143.595947265625)"/>
<path d="M0 0 C4.72786349 0.58071093 6.90318437 2.86967159 10.30859375 6.0390625 C10.89060547 6.56113281 11.47261719 7.08320312 12.07226562 7.62109375 C13.24936691 8.67696534 14.41788135 9.74248759 15.57763672 10.81738281 C17.36616061 12.45016794 17.36616061 12.45016794 19.37158203 13.94042969 C24.20058419 17.66513927 24.20058419 17.66513927 25.078125 21.51953125 C24.18319774 25.18329424 22.95225159 26.33693215 20.05859375 28.7265625 C19.14980469 29.48453125 18.24101562 30.2425 17.3046875 31.0234375 C16.33660156 31.81234375 15.36851562 32.60125 14.37109375 33.4140625 C13.41332031 34.26484375 12.45554688 35.115625 11.46875 35.9921875 C10.52902344 36.81203125 9.58929688 37.631875 8.62109375 38.4765625 C7.76 39.23066406 6.89890625 39.98476562 6.01171875 40.76171875 C2.83196148 42.75141893 1.05717651 42.98550829 -2.62890625 42.4140625 C-4.62890625 39.4140625 -4.62890625 39.4140625 -4.484375 37.47265625 C-3.40091425 34.86542422 -1.97376512 33.43149818 0.05859375 31.4765625 C1.13173828 30.44208984 1.13173828 30.44208984 2.2265625 29.38671875 C4.86828918 26.95671515 7.56846657 24.65616424 10.37109375 22.4140625 C8.58105983 17.58776852 4.41283271 14.7942698 0.5390625 11.65625 C-2.32745045 9.18535748 -3.55972919 7.94358146 -4.05859375 4.125 C-3.49195033 0.54999515 -3.49195033 0.54999515 0 0 Z " fill="#050505" transform="translate(207.62890625,118.5859375)"/>
<path d="M0 0 C1 1 1 1 1.5 3.625 C0.75223048 8.67244423 -2.25097512 10.7648376 -6 14 C-6.66773438 14.58652344 -7.33546875 15.17304688 -8.0234375 15.77734375 C-9.66692034 17.20281356 -11.33149377 18.60390295 -13 20 C-11.20029118 24.84098891 -7.02751519 27.66179811 -3.16796875 30.84570312 C0.88499739 34.36383475 0.88499739 34.36383475 1.4921875 37.72265625 C1 40 1 40 -1 42 C-3.1953125 42.4765625 -3.1953125 42.4765625 -6 42 C-8.51728189 40.37441504 -10.67097421 38.39734905 -12.875 36.375 C-13.46152344 35.85292969 -14.04804688 35.33085937 -14.65234375 34.79296875 C-15.8395191 33.73625223 -17.01891428 32.67073125 -18.19042969 31.59667969 C-19.99488294 29.96578329 -19.99488294 29.96578329 -22.00488281 28.47363281 C-26.81582007 24.76192329 -26.81582007 24.76192329 -27.7421875 20.9296875 C-26.75814876 17.04532405 -25.17235449 15.69963468 -22.125 13.125 C-21.12339844 12.27421875 -20.12179688 11.4234375 -19.08984375 10.546875 C-18.31616455 9.91168945 -18.31616455 9.91168945 -17.52685547 9.26367188 C-16.07782289 8.06440858 -14.66459755 6.82226242 -13.25390625 5.578125 C-11.98353516 4.48757812 -11.98353516 4.48757812 -10.6875 3.375 C-9.92824219 2.72273438 -9.16898438 2.07046875 -8.38671875 1.3984375 C-5.39936756 -0.35192539 -3.40729466 -0.33640427 0 0 Z " fill="#040404" transform="translate(171,119)"/>
<path d="M0 0 C2.5625 0.3125 2.5625 0.3125 4.4375 1.375 C7.09703363 5.95530792 3.98023675 13.15326735 2.78515625 18.1171875 C2.52804115 19.20231125 2.52804115 19.20231125 2.26573181 20.30935669 C1.7217417 22.60277708 1.17354539 24.89516534 0.625 27.1875 C0.08201993 29.4681613 -0.46007771 31.74902866 -1.00137329 34.03009033 C-1.34906152 35.49237805 -1.69845846 36.95426065 -2.0496521 38.41571045 C-2.946899 42.16341858 -3.76398603 45.91383814 -4.50390625 49.6953125 C-5.40863667 53.20066971 -5.69002954 54.21214243 -8.4375 56.3125 C-11.625 56 -11.625 56 -14.4375 55.3125 C-15.50058971 50.59987113 -15.24258774 47.19488398 -14.14453125 42.5078125 C-13.99845428 41.87065811 -13.85237732 41.23350372 -13.70187378 40.57704163 C-13.22902483 38.52775411 -12.7401069 36.4827221 -12.25 34.4375 C-11.92150858 33.0344419 -11.59379182 31.6312022 -11.2668457 30.2277832 C-10.62557479 27.48585714 -9.97711827 24.7458042 -9.32128906 22.00732422 C-8.58653262 18.93555516 -7.86427393 15.86136601 -7.1484375 12.78515625 C-4.23779734 0.54330735 -4.23779734 0.54330735 0 0 Z " fill="#050505" transform="translate(192.4375,111.6875)"/>
<path d="M0 0 C0.33 0 0.66 0 1 0 C1.28875 1.0725 1.5775 2.145 1.875 3.25 C3.01110995 7.34645929 3.01110995 7.34645929 5 11 C7.45704762 12.23290201 7.45704762 12.23290201 10 13 C10.66 13.33 11.32 13.66 12 14 C15.07765119 14.10276022 18.13292675 14.14336125 21.21102905 14.14044189 C22.6610618 14.14489858 22.6610618 14.14489858 24.14038813 14.1494453 C27.40007857 14.1581607 30.65973241 14.15964293 33.91943359 14.16113281 C36.24818501 14.16575894 38.57693566 14.17078332 40.90568542 14.17617798 C47.24654215 14.18932292 53.58738828 14.1957509 59.92825651 14.20018864 C63.88588448 14.20311572 67.84350952 14.2072198 71.80113602 14.21169281 C82.75405686 14.22380425 93.70697516 14.23418568 104.65990257 14.2375679 C105.71177364 14.23789725 105.71177364 14.23789725 106.78489462 14.23823325 C107.83931158 14.23856067 107.83931158 14.23856067 108.91502988 14.2388947 C110.33951211 14.23933817 111.76399434 14.23978473 113.18847656 14.24023438 C113.89507202 14.2404558 114.60166747 14.24067723 115.32967491 14.24090537 C126.78232651 14.24485446 138.23491451 14.26231144 149.68754153 14.2855939 C161.43975567 14.30929299 173.19193789 14.32176909 184.94417632 14.32293582 C191.54508033 14.32398617 198.14589469 14.32994292 204.74677658 14.34775543 C210.95357026 14.36417821 217.16020633 14.36641986 223.36701393 14.35761642 C225.64872089 14.35684296 227.93043612 14.36122918 230.21212196 14.37107468 C233.31993947 14.38370149 236.42719088 14.37796788 239.53500366 14.36749268 C240.4441428 14.37554908 241.35328194 14.38360548 242.28997076 14.39190602 C246.84707355 14.35582437 249.56381418 14.30978906 253 11 C253.66 11 254.32 11 255 11 C256.96301592 7.49461443 257.95902388 3.86648272 259 0 C259.33 0 259.66 0 260 0 C260 5.28 260 10.56 260 16 C174.2 16 88.4 16 0 16 C0 10.72 0 5.44 0 0 Z " fill="#9E9E9E" transform="translate(0,178)"/>
<path d="M0 0 C85.8 0 171.6 0 260 0 C260 4.95 260 9.9 260 15 C258.92487081 12.84974162 257.86154211 10.6923158 256.875 8.5 C253.86557625 4.487435 249.67941273 2.43443576 244.72654045 1.63138485 C242.19750785 1.48707294 239.69659826 1.46656374 237.16355896 1.49206543 C236.20202772 1.48582547 235.24049647 1.4795855 234.24982792 1.47315645 C231.04317073 1.45726209 227.83727743 1.46981705 224.63061523 1.48242188 C222.32554686 1.47699923 220.02048194 1.46987578 217.71542358 1.46118164 C211.46554001 1.44296352 205.21592088 1.45000951 198.96603274 1.46269798 C192.42299107 1.47283214 185.87997189 1.46343125 179.33692932 1.45715332 C167.64716504 1.4486138 155.95751192 1.46183425 144.2677669 1.48219067 C133.67560346 1.50006485 123.08361537 1.49695269 112.49145508 1.47851562 C100.17960525 1.45709513 87.86786717 1.44914884 75.55600125 1.46096468 C69.04283473 1.46719961 62.52978893 1.46803498 56.01663017 1.45481873 C49.89421313 1.44326279 43.77212722 1.45128178 37.64974594 1.47439575 C35.4031676 1.47968391 33.15656137 1.47816729 30.90999413 1.46934509 C27.84277255 1.45841082 24.77661144 1.47212845 21.7094574 1.49206543 C20.3766684 1.4786811 20.3766684 1.4786811 19.01695436 1.46502638 C13.19553248 1.53839886 9.77901231 2.62290594 5 6 C3.1375562 8.40858714 3.1375562 8.40858714 2 11 C1.34 12.32 0.68 13.64 0 15 C0 10.05 0 5.1 0 0 Z " fill="#9F9F9F" transform="translate(0,0)"/>
<path d="M0 0 C3.65907504 0.68607657 5.35167676 1.98984314 8 4.5625 C9.42662219 7.41574437 9.31033868 9.39704549 9 12.5625 C6.91786087 16.31035043 5.7052961 17.35732295 1.5625 18.5625 C-2.4184894 18.5625 -3.96134393 18.0802436 -7 15.5625 C-8.89590453 13.06335312 -9.00468866 11.78286696 -8.9375 8.625 C-7.44716422 3.75656979 -5.09697792 0.95568336 0 0 Z " fill="#F2F2F2" transform="translate(196,19.4375)"/>
<path d="M0 0 C3.73152858 1.17474048 5.26415485 1.76958156 7.375 5.0625 C8.16220048 10.02186303 8.16220048 10.02186303 7.375 13.0625 C4.8125 16.125 4.8125 16.125 1.375 18.0625 C-2.92944539 18.21092915 -4.80923621 17.77367869 -8.0625 14.9375 C-10.07393783 11.23645439 -10.36663232 9.215641 -9.625 5.0625 C-6.48302168 1.38408636 -4.88568266 0.08423591 0 0 Z " fill="#F6F6F6" transform="translate(226.625,19.9375)"/>
<path d="M0 0 C2.4375 1.5625 2.4375 1.5625 4 4 C4.80016627 8.01732963 4.66540643 10.96196597 2.4375 14.4375 C-0.83565762 16.53567796 -3.11417724 17 -7 17 C-9.80189446 15.23358828 -11.51524911 13.96950178 -13 11 C-13.43023798 7.12785818 -13.31669086 5.47503629 -11.125 2.1875 C-7.38445041 -1.66306575 -5.14450674 -1.1530791 0 0 Z " fill="#F6F6F6" transform="translate(171,21)"/>
<path d="M0 0 C0.33 0 0.66 0 1 0 C1.28875 1.0725 1.5775 2.145 1.875 3.25 C3.01110995 7.34645929 3.01110995 7.34645929 5 11 C7.39068734 12.10636395 7.39068734 12.10636395 10 13 C11.32 13.99 12.64 14.98 14 16 C9.38 16 4.76 16 0 16 C0 10.72 0 5.44 0 0 Z " fill="#F2F2F2" transform="translate(0,178)"/>
<path d="M0 0 C0.33 0 0.66 0 1 0 C1 5.28 1 10.56 1 16 C-3.62 16 -8.24 16 -13 16 C-9 13 -9 13 -6.375 12.0625 C-3.93563091 11.21419225 -3.93563091 11.21419225 -2.8125 9.3125 C-1.73417127 6.24341053 -0.84551334 3.14047812 0 0 Z " fill="#F3F3F3" transform="translate(259,178)"/>
<path d="M0 0 C4.62 0 9.24 0 14 0 C14 4.95 14 9.9 14 15 C12.93729577 12.87459154 11.8870264 10.74082527 10.9375 8.5625 C8.06570224 4.76431586 4.21468918 3.0764192 0 1 C0 0.67 0 0.34 0 0 Z " fill="#F3F3F3" transform="translate(246,0)"/>
<path d="M0 0 C4.62 0 9.24 0 14 0 C10 3 10 3 7.4375 4.375 C3.44575637 7.03616242 2.10961104 10.78077793 0 15 C0 10.05 0 5.1 0 0 Z " fill="#F5F5F5" transform="translate(0,0)"/>
</svg>
