<?xml version="1.0" encoding="UTF-8"?>
<svg version="1.1" xmlns="http://www.w3.org/2000/svg" width="225" height="225">
<path d="M0 0 C74.25 0 148.5 0 225 0 C225 74.25 225 148.5 225 225 C150.75 225 76.5 225 0 225 C0 150.75 0 76.5 0 0 Z " fill="#FDFDFD" transform="translate(0,0)"/>
<path d="M0 0 C5.54181827 3.40391855 9.68623649 6.86335518 11.8125 13.11328125 C12.41835937 12.71496094 13.02421875 12.31664062 13.6484375 11.90625 C23.88918919 5.43094393 33.46817917 2.4250216 45.6015625 4.6171875 C59.72477876 8.09826193 69.05387009 14.85173043 76.8125 27.11328125 C82.64851567 37.20845042 82.56218374 51.33790097 80.046875 62.515625 C77.49638669 69.24608027 73.30164406 73.9763626 67.6875 78.42578125 C66.38425781 79.47185547 66.38425781 79.47185547 65.0546875 80.5390625 C62.8125 82.11328125 62.8125 82.11328125 60.8125 82.11328125 C58.2922603 86.97374353 56.5806582 91.02642067 56.46875 96.5625 C56.43910156 97.57505859 56.40945312 98.58761719 56.37890625 99.63085938 C56.33439003 101.75585425 56.29012189 103.88085433 56.24609375 106.00585938 C56.21644531 107.01455078 56.18679687 108.02324219 56.15625 109.0625 C56.13755859 109.98377686 56.11886719 110.90505371 56.09960938 111.85424805 C55.8125 114.11328125 55.8125 114.11328125 53.8125 116.11328125 C50.77148438 116.37207031 50.77148438 116.37207031 46.90625 116.37890625 C45.88549377 116.38177643 45.88549377 116.38177643 44.84411621 116.38470459 C43.40502554 116.38606588 41.96592256 116.3823733 40.52685547 116.37402344 C38.32100913 116.36332253 36.11597719 116.37391997 33.91015625 116.38671875 C32.51301903 116.38539714 31.11588232 116.38283473 29.71875 116.37890625 C28.44322266 116.37665039 27.16769531 116.37439453 25.85351562 116.37207031 C22.8125 116.11328125 22.8125 116.11328125 20.8125 114.11328125 C20.55712891 111.79418945 20.55712891 111.79418945 20.5390625 108.9140625 C20.5184375 107.86927734 20.4978125 106.82449219 20.4765625 105.74804688 C20.45075137 103.55281043 20.43238542 101.3574724 20.421875 99.16210938 C20.39867187 98.11087891 20.37546875 97.05964844 20.3515625 95.9765625 C20.34334473 95.02048096 20.33512695 94.06439941 20.32666016 93.0793457 C19.63605093 89.09538963 17.95674372 86.53038681 15.8125 83.11328125 C15.8031543 84.36351074 15.79380859 85.61374023 15.78417969 86.90185547 C15.7440377 91.58010317 15.67821323 96.25770989 15.60498047 100.93554688 C15.57691047 102.95271515 15.55562708 104.96999056 15.54150391 106.98730469 C15.51987972 109.90224511 15.47313182 112.81591616 15.421875 115.73046875 C15.42064636 116.61942841 15.41941772 117.50838806 15.41815186 118.42428589 C15.22876678 126.6853634 13.15786135 133.96818258 7.375 140.05078125 C0.86882685 145.94786585 -5.73020007 148.63762982 -14.53515625 148.42578125 C-22.09598209 147.5349623 -29.2748599 143.98970906 -34.1875 138.11328125 C-34.83298679 136.73606854 -35.43735958 135.33886434 -36 133.92578125 C-37.15388313 131.31358625 -37.61859886 130.34462737 -40.30078125 129.25390625 C-41.12964844 129.063125 -41.95851562 128.87234375 -42.8125 128.67578125 C-50.25782926 126.93560074 -55.6407981 122.13024403 -59.703125 115.72265625 C-62.63762427 109.31635503 -62.61667506 103.05161133 -62.1875 96.11328125 C-63.115625 95.68208984 -63.115625 95.68208984 -64.0625 95.2421875 C-68.7692558 92.74172348 -71.4009423 87.75232248 -73.421875 82.97265625 C-75.35599314 75.74931706 -75.72059631 66.2785934 -72.4375 59.42578125 C-71.33203125 57.65625 -71.33203125 57.65625 -70.1875 56.11328125 C-69.506875 55.16453125 -68.82625 54.21578125 -68.125 53.23828125 C-66.1875 51.11328125 -66.1875 51.11328125 -63.1875 49.11328125 C-62.79435657 46.55637095 -62.54696641 44.12211633 -62.375 41.55078125 C-61.47562624 32.35012618 -58.54962976 26.67612031 -51.375 20.67578125 C-47.71037314 18.09147791 -44.36875688 17.41097591 -40.015625 16.6484375 C-39.41234375 16.47183594 -38.8090625 16.29523437 -38.1875 16.11328125 C-36.94482962 13.92899556 -36.94482962 13.92899556 -36.1875 11.11328125 C-27.79904735 -0.96804706 -14.12040009 -6.42113022 0 0 Z " fill="#090909" transform="translate(109.1875,18.88671875)"/>
<path d="M0 0 C4.79647397 2.18850523 7.74518728 4.95521179 10.6796875 9.3125 C11.4765625 11.74609375 11.4765625 11.74609375 11.6796875 14.3125 C10.60546875 16.3828125 10.60546875 16.3828125 8.9921875 18.4375 C1.73220867 28.76054682 0.47938738 38.99934373 1.6796875 51.3125 C2.75011691 57.4270392 4.73903445 62.44463447 8.6796875 67.3125 C9.53554443 67.80331055 10.39140137 68.29412109 11.27319336 68.79980469 C15.06538254 72.75934726 14.37688221 76.85567428 14.30859375 82.140625 C14.31100571 83.20359802 14.31341766 84.26657104 14.31590271 85.36175537 C14.31492342 87.61116259 14.3015104 89.86059366 14.27661133 92.10986328 C14.24244846 95.53632591 14.2559133 98.96018837 14.27539062 102.38671875 C14.26848784 104.57553173 14.25881157 106.76433808 14.24609375 108.953125 C14.25353355 110.48009003 14.25353355 110.48009003 14.26112366 112.03790283 C14.14159777 119.34019361 12.83456598 124.65651107 7.93359375 130.3359375 C7.37542969 130.78195313 6.81726563 131.22796875 6.2421875 131.6875 C5.40880859 132.37972656 5.40880859 132.37972656 4.55859375 133.0859375 C-1.32843764 136.92903076 -7.4799099 137.31818657 -14.3203125 136.3125 C-19.38052167 134.03725266 -23.2786321 130.97451482 -26.3203125 126.3125 C-26.3203125 125.6525 -26.3203125 124.9925 -26.3203125 124.3125 C-25.66804688 124.15394531 -25.01578125 123.99539062 -24.34375 123.83203125 C-17.10243614 121.89887814 -12.65873551 119.89808195 -8.4453125 113.4375 C-7.1654541 109.88233778 -7.09525959 107.06338189 -7.3203125 103.3125 C-8.6403125 103.3125 -9.9603125 103.3125 -11.3203125 103.3125 C-11.46726563 103.90417969 -11.61421875 104.49585938 -11.765625 105.10546875 C-13.45395748 111.05344466 -15.15700753 113.87029669 -20.3203125 117.3125 C-26.05474663 119.22397804 -33.06220858 119.51421718 -38.77734375 117.40625 C-44.05138576 114.25997637 -47.87767002 110.19778496 -50.6328125 104.6875 C-51.3200516 101.31378079 -51.17059717 98.78827534 -50.9453125 95.375 C-50.80329512 90.95177355 -50.80329512 90.95177355 -52.953125 87.26171875 C-54.37022714 86.12437662 -55.81112015 85.01608869 -57.2734375 83.9375 C-61.36732239 80.68739291 -63.00978702 76.75387277 -63.66015625 71.640625 C-63.91497131 64.26118097 -62.52944819 58.62620353 -58.4453125 52.5 C-56.3203125 50.3125 -56.3203125 50.3125 -53.69140625 49.09375 C-52.51771484 48.21203125 -52.51771484 48.21203125 -51.3203125 47.3125 C-50.86420698 44.15205879 -50.86420698 44.15205879 -51.2578125 40.625 C-51.46150192 34.44429921 -51.22593357 30.2230762 -47.3203125 25.3125 C-43.11439814 20.86738672 -38.9188521 17.77509253 -32.70703125 16.9765625 C-26.41170338 16.8854579 -21.42772539 17.39761984 -16.3203125 21.3125 C-13.38695261 24.84757474 -11.85779159 27.74392773 -11.3203125 32.3125 C-10.0003125 32.3125 -8.6803125 32.3125 -7.3203125 32.3125 C-7.59044323 26.23455857 -8.29331844 22.14489287 -12.3203125 17.3125 C-15.24775 14.78971909 -17.85854363 13.65062035 -21.5703125 12.625 C-22.46234375 12.37363281 -23.354375 12.12226562 -24.2734375 11.86328125 C-24.94890625 11.68152344 -25.624375 11.49976563 -26.3203125 11.3125 C-24.96922889 8.22239789 -23.53013317 6.34339847 -20.9453125 4.1875 C-20.36007813 3.68992187 -19.77484375 3.19234375 -19.171875 2.6796875 C-13.40789472 -1.57641608 -6.85865616 -2.03219442 0 0 Z " fill="#FAFAFA" transform="translate(104.3203125,23.6875)"/>
<path d="M0 0 C1.10304474 -0.01431061 2.20608948 -0.02862122 3.34255981 -0.04336548 C5.16661095 -0.05143219 5.16661095 -0.05143219 7.0275116 -0.05966187 C8.30414673 -0.07280426 9.58078186 -0.08594666 10.89610291 -0.0994873 C15.14061946 -0.14161333 19.38513766 -0.16231216 23.62980652 -0.18222046 C25.09371707 -0.19031722 26.55762686 -0.19855111 28.02153587 -0.20692062 C34.90771401 -0.24505252 41.7938492 -0.2734952 48.68011266 -0.29014456 C56.60767088 -0.3096302 64.5341033 -0.36209712 72.46126539 -0.44314635 C78.59904677 -0.50372517 84.73650823 -0.53310716 90.87458247 -0.53970659 C94.53468189 -0.54438365 98.19358099 -0.56197609 101.85335732 -0.61262894 C130.50824937 -0.9891148 130.50824937 -0.9891148 140.79777527 8.29434204 C142.14910698 9.16939331 143.51830952 10.01808481 144.91105652 10.82559204 C147.8732961 12.64850871 150.83553569 14.47142537 153.79777527 16.29434204 C153.42919239 18.72906553 153.13105536 19.98703183 151.29386902 21.68106079 C149.8068467 22.62067831 148.30269158 23.53336709 146.78863525 24.42877197 C143.738787 26.26437415 143.738787 26.26437415 140.85098267 28.55444336 C128.2224086 37.64697809 114.05496725 36.49155875 99.14990544 36.23981905 C95.44032435 36.18665479 91.730686 36.18488629 88.02078247 36.17700195 C81.8116006 36.15690387 75.60343511 36.10454789 69.3946991 36.02822876 C60.62729412 35.92048624 51.86024992 35.87054803 43.09230244 35.83248067 C30.71401176 35.77574269 18.33579988 35.69174081 5.95817566 35.5506897 C4.73390869 35.54014557 3.50964172 35.52960144 2.24827576 35.51873779 C1.14252701 35.50435669 0.03677826 35.48997559 -1.10247803 35.47515869 C-2.06893722 35.46439112 -3.0353964 35.45362354 -4.03114223 35.44252968 C-6.20222473 35.29434204 -6.20222473 35.29434204 -7.20222473 34.29434204 C-7.31539757 31.94205886 -7.3663901 29.62022256 -7.37019348 27.26699829 C-7.37352188 26.56288315 -7.37685028 25.85876801 -7.38027954 25.13331604 C-7.38535128 23.64118098 -7.38768779 22.14903454 -7.38752747 20.65689087 C-7.38971232 18.36983597 -7.40786022 16.08326451 -7.42683411 13.79629517 C-7.42976827 12.3490312 -7.43175291 10.90176493 -7.43269348 9.45449829 C-7.439879 8.76799698 -7.44706451 8.08149567 -7.45446777 7.37419128 C-7.42471839 1.21197884 -5.9973635 0.05328074 0 0 Z " fill="#0E0E0E" transform="translate(39.20222473144531,172.70565795898438)"/>
<path d="M0 0 C9.81391434 5.47314453 15.48468251 13.45404754 19 24 C19.12294886 26.59622252 19.18513129 29.15389532 19.1875 31.75 C19.19974609 32.4409375 19.21199219 33.131875 19.22460938 33.84375 C19.24484287 41.01989778 17.75611095 48.40662746 13 54 C11.05589236 55.52495252 9.07210252 56.99995611 7.0625 58.4375 C-0.36729011 63.80396229 -3.59560487 67.98918126 -5.3125 77 C-5.55896391 78.66419671 -5.79435288 80.33026816 -6 82 C-8.64 82 -11.28 82 -14 82 C-14 70.78 -14 59.56 -14 48 C-11.69 47.34 -9.38 46.68 -7 46 C-6.67 44.68 -6.34 43.36 -6 42 C-12.93 42 -19.86 42 -27 42 C-27.33 43.65 -27.66 45.3 -28 47 C-25.36 47 -22.72 47 -20 47 C-20 58.55 -20 70.1 -20 82 C-22.64 82 -25.28 82 -28 82 C-28.17015625 81.28714844 -28.3403125 80.57429688 -28.515625 79.83984375 C-28.75796875 78.88207031 -29.0003125 77.92429687 -29.25 76.9375 C-29.48203125 75.99777344 -29.7140625 75.05804688 -29.953125 74.08984375 C-32.36960402 66.95762395 -35.75617364 62.85175402 -41.5625 58.3125 C-47.82039726 53.32715838 -51.73773856 49.30149805 -53.625 41.375 C-54.92748962 29.65259338 -53.71449425 19.86195369 -46.73046875 10.1015625 C-34.79097946 -4.39831388 -16.98086545 -8.36025573 0 0 Z " fill="#FBFBFB" transform="translate(165,34)"/>
<path d="M0 0 C29.37 0 58.74 0 89 0 C89 2.64 89 5.28 89 8 C59.63 8 30.26 8 0 8 C0 5.36 0 2.72 0 0 Z " fill="#F6F6F6" transform="translate(73,194)"/>
<path d="M0 0 C29.04 0 58.08 0 88 0 C88 2.31 88 4.62 88 7 C58.96 7 29.92 7 0 7 C0 4.69 0 2.38 0 0 Z " fill="#FEFEFE" transform="translate(74,180)"/>
<path d="M0 0 C2 0.125 2 0.125 4 1 C6.30780318 4.41716822 6.23850516 7.45668222 6.1875 11.5 C6.18105469 12.6240625 6.17460938 13.748125 6.16796875 14.90625 C6 18 6 18 5.375 20.23828125 C5.25125 20.81964844 5.1275 21.40101562 5 22 C6.74218259 24.91439 6.74218259 24.91439 10 27 C12.62519026 27.49376619 15.12408415 27.68569355 17.79296875 27.76171875 C20 28 20 28 22 30 C21.46428571 33.53571429 21.46428571 33.53571429 20 35 C12.14427464 36.04857603 6.81998505 33.67398953 0.5 29.25 C0.005 28.8375 -0.49 28.425 -1 28 C-1.763125 28.495 -2.52625 28.99 -3.3125 29.5 C-8.28101775 31.52109197 -12.70651036 31.25431356 -18 31 C-18.38218767 29.34385343 -18.71395102 27.67542976 -19 26 C-17.32811639 24.32811639 -15.03968578 24.55610772 -12.75 24.25 C-7.46348021 23.34373946 -5.1995911 22.26612146 -2 18 C0.05167757 13.89664486 -0.69314656 8.44221115 -1.625 4.0625 C-1.74875 3.381875 -1.8725 2.70125 -2 2 C-1.34 1.34 -0.68 0.68 0 0 Z " fill="#0C0C0C" transform="translate(84,65)"/>
<path d="M0 0 C4.95 0 9.9 0 15 0 C15 7.26 15 14.52 15 22 C10.05 22 5.1 22 0 22 C0 14.74 0 7.48 0 0 Z " fill="#FDFDFD" transform="translate(39,180)"/>
<path d="M0 0 C1.39120471 0.00015906 2.78241534 0.00585033 4.17358398 0.01586914 C4.90463852 0.01728409 5.63569305 0.01869904 6.38890076 0.02015686 C8.73253406 0.02577131 11.07607313 0.03832617 13.41967773 0.05102539 C15.00496282 0.05603853 16.59024939 0.06060176 18.17553711 0.06469727 C22.06945383 0.07574542 25.96329979 0.09301967 29.85717773 0.11352539 C30.23936541 1.76967196 30.57112875 3.43809563 30.85717773 5.11352539 C29.85717773 6.11352539 29.85717773 6.11352539 26.71435547 6.22705078 C25.32315076 6.22689172 23.93194013 6.22120046 22.54077148 6.21118164 C21.80971695 6.20976669 21.07866241 6.20835175 20.32545471 6.20689392 C17.98182141 6.20127947 15.63828234 6.18872461 13.29467773 6.17602539 C11.70939265 6.17101225 10.12410608 6.16644902 8.53881836 6.16235352 C4.64490163 6.15130536 0.75105568 6.13403111 -3.14282227 6.11352539 C-3.52500994 4.45737882 -3.85677328 2.78895515 -4.14282227 1.11352539 C-3.14282227 0.11352539 -3.14282227 0.11352539 0 0 Z " fill="#050505" transform="translate(134.142822265625,140.886474609375)"/>
<path d="M0 0 C3.16167361 1.5808368 6.20203005 3.21756143 9.25 5 C10.14203125 5.515625 11.0340625 6.03125 11.953125 6.5625 C12.96632812 7.2740625 12.96632812 7.2740625 14 8 C14 8.66 14 9.32 14 10 C11.4453125 11.7265625 11.4453125 11.7265625 8.125 13.625 C7.03445312 14.25664062 5.94390625 14.88828125 4.8203125 15.5390625 C2 17 2 17 0 17 C0 11.39 0 5.78 0 0 Z " fill="#ECECEC" transform="translate(168,182)"/>
<path d="M0 0 C1.98 0 3.96 0 6 0 C6 7.26 6 14.52 6 22 C4.02 22 2.04 22 0 22 C0 14.74 0 7.48 0 0 Z " fill="#FAFAFA" transform="translate(61,180)"/>
<path d="M0 0 C3.47914941 -0.02887814 6.95826831 -0.04675687 10.4375 -0.0625 C11.92733398 -0.07506836 11.92733398 -0.07506836 13.44726562 -0.08789062 C14.39150391 -0.09111328 15.33574219 -0.09433594 16.30859375 -0.09765625 C17.62041626 -0.10551147 17.62041626 -0.10551147 18.95874023 -0.11352539 C21 0 21 0 22 1 C22 2.65 22 4.3 22 6 C14.74 6 7.48 6 0 6 C0 4.02 0 2.04 0 0 Z " fill="#E6E6E6" transform="translate(137,122)"/>
<path d="M0 0 C6.93 0 13.86 0 21 0 C21.33 1.65 21.66 3.3 22 5 C19.66836164 6.16581918 18.27846518 6.12905609 15.68359375 6.1328125 C14.41418945 6.13474609 14.41418945 6.13474609 13.11914062 6.13671875 C12.23419922 6.13285156 11.34925781 6.12898437 10.4375 6.125 C9.54869141 6.12886719 8.65988281 6.13273438 7.74414062 6.13671875 C6.89916016 6.13542969 6.05417969 6.13414062 5.18359375 6.1328125 C4.01654907 6.13112061 4.01654907 6.13112061 2.82592773 6.12939453 C1 6 1 6 0 5 C0 3.35 0 1.7 0 0 Z " fill="#040404" transform="translate(137,154)"/>
</svg>
