<?xml version="1.0" encoding="UTF-8"?>
<svg version="1.1" xmlns="http://www.w3.org/2000/svg" width="860" height="718">
<path d="M0 0 C283.8 0 567.6 0 860 0 C860 236.94 860 473.88 860 718 C576.2 718 292.4 718 0 718 C0 481.06 0 244.12 0 0 Z " fill="#F6F6F6" transform="translate(0,0)"/>
<path d="M0 0 C0.86415527 0.31364502 1.72831055 0.62729004 2.61865234 0.95043945 C13.89528799 5.07355573 25.09475657 9.42987503 36.19140625 14.015625 C38.34452422 14.83125235 40.50179962 15.57074368 42.6875 16.29296875 C48.17771187 18.10747787 53.62135815 20.04384778 59.0625 22 C60.13999512 22.38704102 61.21749023 22.77408203 62.32763672 23.17285156 C71.458735 26.47382077 80.51370557 29.95707113 89.56274414 33.47558594 C96.34594526 36.10014032 103.13940543 38.552727 110.0859375 40.70703125 C113.21846877 41.79615636 116.22810024 43.0102286 119.28125 44.30078125 C125.36408943 46.86507854 131.52564606 49.11875885 137.75 51.3125 C145.25084226 53.98175373 152.72008176 56.69962055 160.125 59.625 C166.44273219 62.12059643 172.80231412 64.4373093 179.21923828 66.66430664 C185.24362667 68.76927247 191.18927506 71.05503751 197.12304688 73.40234375 C202.91852543 75.69017532 208.76326557 77.82585703 214.625 79.9375 C216.43500435 80.59214795 218.24490121 81.24709321 220.0546875 81.90234375 C220.94478516 82.22460938 221.83488281 82.546875 222.75195312 82.87890625 C230.56686817 85.71160467 238.35888807 88.58227688 246.10546875 91.59765625 C251.82318386 93.77432249 257.58088725 95.84058876 263.33325195 97.92358398 C269.47643991 100.15018175 275.60402036 102.41312549 281.71801758 104.71850586 C287.65416596 106.95504173 293.60688131 109.14552555 299.56152344 111.33227539 C303.9267689 112.93719705 308.28430426 114.56015577 312.63378906 116.20727539 C319.34511167 118.7482331 326.09216743 121.15634604 332.875 123.5 C339.14389764 125.66804021 345.27531536 127.98485502 351.36328125 130.625 C356.60360684 132.73368191 361.96689338 134.50512851 367.33398438 136.26367188 C381.80053195 141.1471371 381.80053195 141.1471371 385.75 147.1875 C387.12889997 153.0970713 386.54125242 157.55524372 384.375 163.1875 C379.96230042 167.60019958 374.44825574 168.95579733 368.625 170.9375 C366.55858663 171.718895 364.49601048 172.51051686 362.4375 173.3125 C360.82488281 173.93125 360.82488281 173.93125 359.1796875 174.5625 C356.61834075 175.5532627 354.06164217 176.55276411 351.5078125 177.5625 C342.64497594 181.05709138 333.73572996 184.34162161 324.73168945 187.45483398 C319.17873384 189.37894364 313.68813683 191.42108289 308.21484375 193.5625 C303.43545763 195.3931245 298.62482237 197.13313393 293.8125 198.875 C286.70021563 201.45027187 279.599604 204.05063258 272.52319336 206.72290039 C269.0625253 208.02827474 265.59665705 209.31678161 262.12109375 210.58203125 C253.91930067 213.57045959 245.77538316 216.65206921 237.6875 219.9375 C230.12386855 223.00757054 222.49394091 225.78469625 214.77368164 228.43359375 C209.82808939 230.13907109 204.96779911 231.95849669 200.125 233.9375 C193.45348279 236.66279298 186.69284311 239.05115802 179.88232422 241.40454102 C174.27100841 243.34774472 168.72267939 245.40866553 163.19140625 247.5703125 C158.54319425 249.35221195 153.86714567 251.05266451 149.1875 252.75 C148.24825684 253.0907959 147.30901367 253.4315918 146.34130859 253.78271484 C141.54551207 255.52095767 136.74782962 257.25391903 131.94921875 258.984375 C122.61916085 262.35514535 113.33065252 265.79784367 104.10058594 269.43383789 C98.45092882 271.64756819 92.75035811 273.67961123 87.01831055 275.66845703 C81.83997905 277.47737135 76.72787767 279.4263271 71.625 281.4375 C65.78616104 283.73766775 59.92573631 285.93367304 54 288 C43.3592064 291.71139099 32.81343845 295.62522538 22.375 299.875 C15.37754831 302.7039163 8.2861349 305.21162408 1.14941406 307.66577148 C0.33053711 307.94751221 -0.48833984 308.22925293 -1.33203125 308.51953125 C-2.06397705 308.76936768 -2.79592285 309.0192041 -3.55004883 309.27661133 C-5.43607117 309.91972845 -5.43607117 309.91972845 -7.375 310.9375 C-17.17384802 312.67951743 -25.76656771 308.60251598 -34.64648438 305.03320312 C-38.54525528 303.46755496 -42.46136712 301.94714952 -46.37597656 300.42163086 C-48.31696544 299.6633432 -50.25652243 298.90137574 -52.19433594 298.13500977 C-57.62292316 295.98937468 -63.07559869 293.93718427 -68.56689453 291.95776367 C-71.47890375 290.89974885 -74.37904628 289.8137415 -77.27734375 288.71875 C-78.27056641 288.34363281 -79.26378906 287.96851563 -80.28710938 287.58203125 C-82.30061968 286.82030301 -84.31364301 286.05728626 -86.32617188 285.29296875 C-92.42597496 282.99220051 -98.55967549 280.86328514 -104.75219727 278.82617188 C-107.692115 277.83005342 -110.5346336 276.68861377 -113.375 275.4375 C-117.33235445 273.74737987 -121.28009897 272.25981179 -125.375 270.9375 C-129.30180966 269.66735925 -133.0855108 268.2589511 -136.875 266.625 C-143.08248783 263.97278371 -149.42166239 261.79538622 -155.80078125 259.60107422 C-161.05205366 257.78309794 -166.23259474 255.8557321 -171.375 253.75 C-176.68698544 251.57926433 -182.02148794 249.69479104 -187.48046875 247.93359375 C-191.53245559 246.53918532 -195.43584774 244.83859628 -199.375 243.15625 C-202.34500654 241.94968484 -205.32498913 240.92239934 -208.375 239.9375 C-212.42390955 238.6281773 -216.33465893 237.16687597 -220.25 235.5 C-224.75876337 233.59061604 -229.28576701 231.76773967 -233.875 230.0625 C-235.59203125 229.41667969 -235.59203125 229.41667969 -237.34375 228.7578125 C-240.98351752 227.75402393 -240.98351752 227.75402393 -244.375 228.9375 C-253.485338 237.72850656 -259.18841538 250.15775621 -263.375 261.9375 C-263.6004248 262.55689453 -263.82584961 263.17628906 -264.05810547 263.81445312 C-267.7813061 274.11441999 -270.53116565 284.36999353 -272.61328125 295.12109375 C-273.375 298.9375 -273.375 298.9375 -274.375 301.9375 C-276.66057506 316.82254769 -277.38410479 331.92591547 -278.375 346.9375 C-277.75028809 347.23914063 -277.12557617 347.54078125 -276.48193359 347.8515625 C-267.58948419 352.43483191 -262.34197135 362.7052191 -259 371.6875 C-254.7327808 387.02055883 -256.00355856 403.80731824 -263.375 417.9375 C-266.50798345 423.122496 -269.73256471 427.5967365 -274.4375 431.4375 C-276.69717636 434.35321143 -276.61128621 434.89633008 -276.3125 438.4375 C-276.00331718 440.60464252 -275.69026691 442.77123421 -275.375 444.9375 C-275.15707564 447.15218272 -274.96998004 449.36856304 -274.78149414 451.5859375 C-273.84535117 462.43976901 -272.491363 473.23626082 -271.10531616 484.03948975 C-270.05126563 492.26618468 -269.08132488 500.48477408 -268.375 508.75 C-267.70706994 516.49431624 -266.63308332 524.13285691 -265.4375 531.8125 C-263.70513704 542.98851946 -262.47921117 554.16161057 -261.45605469 565.42333984 C-260.78136956 572.83279516 -260.00894545 580.21616188 -259.09814453 587.6003418 C-255.73571903 614.9255464 -255.73571903 614.9255464 -259.15234375 621.203125 C-261.36636766 623.92688025 -262.18810098 624.76367562 -265.375 625.9375 C-268.55577087 626.19819641 -268.55577087 626.19819641 -272.35913086 626.2121582 C-273.05394058 626.21726913 -273.74875031 626.22238007 -274.46461487 626.22764587 C-276.75644598 626.2415212 -279.04797568 626.24058672 -281.33984375 626.23828125 C-282.93640759 626.2421693 -284.53297039 626.2465042 -286.12953186 626.25126648 C-289.47432815 626.25872423 -292.81901888 626.25844064 -296.16381836 626.25317383 C-300.44560993 626.24737952 -304.72696888 626.26431114 -309.00868893 626.2875185 C-312.30557269 626.30226546 -315.60235248 626.30312625 -318.89926338 626.30000877 C-320.47768574 626.3005215 -322.056114 626.30575006 -323.63450432 626.31582069 C-325.84377866 626.32818693 -328.05221325 626.32139314 -330.26147461 626.30981445 C-332.14533119 626.31075859 -332.14533119 626.31075859 -334.06724548 626.3117218 C-337.6591583 625.90535184 -339.51373224 625.10576135 -342.375 622.9375 C-345.62700084 618.12271115 -345.84300134 613.94345655 -345.73828125 608.3359375 C-345.72968582 607.50742279 -345.72109039 606.67890808 -345.7122345 605.82528687 C-345.52125017 597.18285316 -344.33438415 588.73279527 -342.98153687 580.2069397 C-342.25929669 575.64905766 -341.58365883 571.0842568 -340.90625 566.51953125 C-340.77147751 565.61690048 -340.63670502 564.71426971 -340.49784851 563.7842865 C-338.81998425 552.40296454 -337.71315616 540.97914677 -336.640625 529.52685547 C-336.42201869 527.39584579 -336.13268254 525.27221192 -335.82421875 523.15234375 C-335.40852221 520.17740242 -335.20667402 517.24919871 -335.08447266 514.24926758 C-334.81371822 507.64082484 -334.17275899 501.25658562 -333 494.75 C-330.54705647 480.82665427 -329.83828998 466.61179091 -328.86207581 452.5227356 C-328.61724319 449.00847025 -328.32927774 445.5190176 -327.9465332 442.01586914 C-327.82366943 440.85949951 -327.70080566 439.70312988 -327.57421875 438.51171875 C-327.45393311 437.51744873 -327.33364746 436.52317871 -327.2097168 435.4987793 C-327.42048642 432.23262846 -328.41366199 431.27080131 -330.8125 429.125 C-331.54597656 428.51785156 -332.27945313 427.91070312 -333.03515625 427.28515625 C-342.9282071 417.35907351 -345.49687329 402.94008589 -345.6875 389.5625 C-345.62862921 373.17414623 -340.83716711 361.12498579 -329.6796875 349.1875 C-327.375 346.9375 -327.375 346.9375 -324.375 344.9375 C-323.80670482 342.80653267 -323.80670482 342.80653267 -323.71484375 340.30859375 C-323.64467041 339.36467773 -323.57449707 338.42076172 -323.50219727 337.44824219 C-323.43959717 336.43407227 -323.37699707 335.41990234 -323.3125 334.375 C-323.15554417 332.2641809 -322.99667678 330.15350311 -322.8359375 328.04296875 C-322.75956055 327.00060059 -322.68318359 325.95823242 -322.60449219 324.88427734 C-322.08464316 318.20919457 -321.27114326 311.57138621 -320.375 304.9375 C-320.27074707 304.16422363 -320.16649414 303.39094727 -320.05908203 302.59423828 C-318.77052759 293.27138792 -317.11368571 284.37477801 -314.328125 275.36328125 C-313.31816759 271.7332294 -312.71305843 268.15810044 -312.125 264.4375 C-309.44362323 248.53402636 -302.52649386 233.29256171 -295.375 218.9375 C-294.86453125 217.90238281 -294.3540625 216.86726562 -293.828125 215.80078125 C-292.68903263 213.50659801 -291.53642009 211.2204051 -290.375 208.9375 C-290.91229736 208.76009277 -291.44959473 208.58268555 -292.00317383 208.39990234 C-300.35326781 205.63122958 -308.64892101 202.71176099 -316.94677734 199.79101562 C-319.0844647 199.0396226 -321.22359446 198.29254842 -323.36328125 197.546875 C-328.64458088 195.69048937 -333.85477676 193.76964312 -339 191.5625 C-345.14318384 188.94732937 -351.41554236 186.76795737 -357.73095703 184.61181641 C-362.39430319 183.01222943 -367.0044227 181.31927104 -371.59765625 179.52734375 C-376.2298415 177.72886596 -380.88416608 176.05736034 -385.59375 174.47265625 C-387.39199219 173.86067383 -387.39199219 173.86067383 -389.2265625 173.23632812 C-391.68573238 172.40300129 -394.14943535 171.58294835 -396.6171875 170.77539062 C-407.78861217 166.92839786 -407.78861217 166.92839786 -411.375 160.9375 C-412.8345386 156.55888421 -412.96079532 152.50956106 -412.375 147.9375 C-407.2796854 138.29279737 -392.5922099 135.84646182 -382.9375 132.4375 C-375.46872603 129.790458 -368.04331051 127.0626461 -360.65405273 124.20068359 C-355.16244862 122.08516281 -349.64418416 120.04226203 -344.125 118 C-342.35684937 117.34487427 -342.35684937 117.34487427 -340.55297852 116.67651367 C-333.49540532 114.06877397 -326.419877 111.52585519 -319.31347656 109.05493164 C-313.52345187 107.02584456 -307.82027761 104.79382948 -302.11206055 102.54663086 C-294.26986637 99.47417698 -286.33005004 96.70116212 -278.375 93.9375 C-270.65469653 91.24623917 -263.05107427 88.42912991 -255.5234375 85.23828125 C-250.00532794 82.95846675 -244.39832596 80.91588022 -238.80078125 78.84130859 C-236.1034972 77.83634225 -233.41092386 76.8193564 -230.71875 75.80078125 C-221.18133176 72.19700075 -211.63789592 68.63950774 -202 65.3125 C-194.14526203 62.60015105 -186.3994014 59.66517996 -178.66796875 56.62109375 C-167.99352787 52.4189166 -157.20833087 48.50094179 -146.44165039 44.54296875 C-141.41241635 42.6928545 -136.39046304 40.82460581 -131.375 38.9375 C-124.74174885 36.44168921 -118.09348104 33.98811342 -111.44140625 31.54296875 C-106.41230331 29.69271532 -101.39047052 27.82437134 -96.375 25.9375 C-84.55924095 21.4967575 -72.73210207 17.09262634 -60.8125 12.9375 C-54.94952132 10.89178196 -49.15333494 8.71091268 -43.375 6.4375 C-37.34974754 4.08093064 -31.32149902 1.73517132 -25.25 -0.5 C-24.57582031 -0.75910156 -23.90164063 -1.01820312 -23.20703125 -1.28515625 C-14.7099406 -4.35965028 -8.22465556 -3.08810089 0 0 Z " fill="#000000" transform="translate(443.375,44.0625)"/>
<path d="M0 0 C1.7592532 0.47037653 3.51783195 0.94327607 5.27612305 1.41723633 C6.25550339 1.68031082 7.23488373 1.94338531 8.24394226 2.21443176 C11.54148836 3.15434221 14.65427018 4.3547041 17.8125 5.6875 C24.12796459 8.29745815 30.50942434 10.68199362 36.9375 13 C44.05118295 15.56579924 51.14700542 18.1680926 58.21875 20.84716797 C63.09824361 22.68576317 68.01240287 24.41290404 72.9375 26.125 C77.91411624 27.85767744 82.75140378 29.71838095 87.52734375 31.9453125 C91.70397732 33.72681497 96.00830493 35.1615226 100.2956543 36.65063477 C105.16288676 38.34342454 109.99600822 40.10563596 114.8125 41.9375 C120.92119596 44.2582375 127.07329546 46.42988117 133.25 48.5625 C139.51842769 50.7301968 145.64787837 53.05108009 151.73828125 55.68359375 C156.9869654 57.80192496 162.34742744 59.60334304 167.70898438 61.4140625 C172.4812499 63.04398639 177.06702532 64.87808913 181.6574707 66.96264648 C202.57149565 76.22410474 218.5442315 79.11983889 240 71 C241.28500657 70.52563601 242.57016238 70.05167609 243.85546875 69.578125 C246.48262019 68.60257147 249.10171972 67.60781012 251.71875 66.60546875 C256.52694038 64.77975993 261.38810624 63.11362404 266.25 61.4375 C272.48191511 59.28119448 278.58230335 56.98096395 284.640625 54.37109375 C290.19979168 52.10217805 295.86271789 50.11848717 301.51196289 48.08666992 C307.48077337 45.93361124 313.40991161 43.70313846 319.3125 41.375 C325.76377747 38.83181104 332.25993249 36.47325203 338.81103516 34.20092773 C343.4890209 32.56619466 348.09755796 30.80447383 352.6875 28.9375 C358.36886774 26.62658523 364.09658724 24.51026979 369.8828125 22.4765625 C375.22096407 20.58150514 380.51284018 18.56203707 385.8125 16.5625 C393.58911887 13.63087645 401.38039949 10.76404334 409.23242188 8.04077148 C414.67568907 6.14462843 420.0240579 4.05678564 425.36328125 1.8828125 C428 1 428 1 432 1 C432.65664111 10.64511966 433.3015262 20.29099825 433.9375 29.9375 C434.00770041 31.00103699 434.00770041 31.00103699 434.079319 32.08605957 C435.42251184 52.47413051 436.6188777 72.83680589 436.8581543 93.2734375 C436.94572435 96.02089893 436.94572435 96.02089893 437.48730469 98.77587891 C438.57522395 105.61733689 438.42639961 112.60373675 438.51489258 119.51806641 C438.54633826 121.40512989 438.59388666 123.29200174 438.65844727 125.17822266 C439.23486243 142.30813758 435.41147282 154.85867066 424 168 C423.37996094 168.76183594 422.75992187 169.52367187 422.12109375 170.30859375 C412.09119961 182.14867136 399.43226375 190.49202472 386 198 C385.34789551 198.36786621 384.69579102 198.73573242 384.02392578 199.11474609 C366.40351477 209 366.40351477 209 359 209 C359 209.66 359 210.32 359 211 C344.59706822 215.93624537 330.28805688 220.72678702 315.28515625 223.5078125 C312.98964967 224.0022293 310.84881018 224.68720578 308.625 225.4375 C301.20135122 227.75958919 293.42027315 228.54648913 285.73779297 229.60644531 C282.70070797 230.0430229 279.6739232 230.53254323 276.64453125 231.01953125 C234.00732161 237.57359857 185.64089093 237.59452641 143.37890625 228.6875 C138.64502742 227.72430616 133.87787055 227.1249126 129.0859375 226.52734375 C125.90176504 225.98321301 123.05239434 225.04218052 120 224 C118.44306655 223.71739695 116.87983864 223.46761396 115.3125 223.25 C107.39755975 221.88945093 99.86607186 219.21326726 92.25048828 216.72412109 C89.20293527 215.74353504 86.13313607 214.84280185 83.0625 213.9375 C76.85075338 212.02619335 70.93364586 209.6437036 65 207 C63.22109375 206.21109375 63.22109375 206.21109375 61.40625 205.40625 C36.1652728 194.02564024 7.81506997 176.67812173 -2.88720703 149.76928711 C-5.08160805 143.25534685 -5.39225489 137.26787405 -5.25 130.4375 C-5.23759277 129.3247168 -5.22518555 128.21193359 -5.21240234 127.06542969 C-5.16222017 123.37627976 -5.08388379 119.68853041 -5 116 C-4.97389648 114.69885254 -4.94779297 113.39770508 -4.92089844 112.05712891 C-4.60327419 96.59757599 -3.94776367 81.20442552 -2.80566406 65.78173828 C-1.26922096 43.89170784 -0.75671977 21.92786837 0 0 Z " fill="#000000" transform="translate(214,331)"/>
</svg>
