<?xml version="1.0" encoding="UTF-8"?>
<svg version="1.1" xmlns="http://www.w3.org/2000/svg" width="225" height="225">
<path d="M0 0 C74.25 0 148.5 0 225 0 C225 74.25 225 148.5 225 225 C150.75 225 76.5 225 0 225 C0 150.75 0 76.5 0 0 Z " fill="#FEFEFE" transform="translate(0,0)"/>
<path d="M0 0 C7.84634775 2.61544925 11.14698499 10.03247552 14.70117188 16.92871094 C16.66017523 21.05587129 18.05786138 25.36204979 19.421875 29.71875 C21.85345588 36.09770244 25.84118106 40.35139537 30.8125 44.8125 C31.38548828 45.33537598 31.95847656 45.85825195 32.54882812 46.39697266 C36.41196884 49.88699367 40.3865507 53.14985851 44.625 56.1796875 C49.42107711 60.24511224 52.06876264 63.3042539 52.77612305 69.68505859 C52.82937744 70.38711426 52.88263184 71.08916992 52.9375 71.8125 C53.00815674 72.55322754 53.07881348 73.29395508 53.15161133 74.05712891 C53.78683683 81.33391236 53.88306025 88.5743922 53.625 95.875 C53.58052734 97.33873047 53.58052734 97.33873047 53.53515625 98.83203125 C53.01223321 107.74723138 49.92384486 115.65845663 46.625 123.875 C47.54087891 123.83834229 48.45675781 123.80168457 49.40039062 123.76391602 C83.2232118 122.58726654 83.2232118 122.58726654 95.625 130.875 C97.34651152 132.59651152 97.07842231 134.70807284 97.25 137.0625 C97.24070565 140.63617944 97.20814976 142.24183112 94.7578125 144.90234375 C89.33301978 148.5396228 84.862212 149.99340525 78.35668945 150.02026367 C76.77903557 150.02983345 76.77903557 150.02983345 75.16950989 150.03959656 C73.47105171 150.04126579 73.47105171 150.04126579 71.73828125 150.04296875 C70.56669968 150.04629715 69.3951181 150.04962555 68.18803406 150.05305481 C65.70747266 150.05811808 63.22690445 150.06046332 60.74633789 150.06030273 C56.9694479 150.06248157 53.19285365 150.08062285 49.41601562 150.09960938 C47.00260516 150.10254502 44.58919332 150.10452867 42.17578125 150.10546875 C41.05359695 150.11265427 39.93141266 150.11983978 38.77522278 150.12724304 C28.97766765 150.09900641 21.71314971 149.39086731 14.05859375 143.01953125 C11.10499589 141.63043948 9.15784599 142.01378368 6.00073242 142.54467773 C-2.94187839 143.78805996 -12.36578491 142.99909387 -21.375 142.875 C-22.21337402 142.86774902 -23.05174805 142.86049805 -23.91552734 142.85302734 C-25.98591752 142.82654717 -28.05567527 142.75899691 -30.125 142.6875 C-31.23359375 142.65269531 -32.3421875 142.61789063 -33.484375 142.58203125 C-37.28467216 141.65249911 -38.85452608 139.78986463 -41.375 136.875 C-41.705 136.545 -42.035 136.215 -42.375 135.875 C-43.24436968 127.60886203 -41.71344678 120.83603435 -39.09472656 113.06689453 C-34.65037968 99.53183811 -30.64143573 86.32480823 -30.4453125 72.0078125 C-30.375 68.875 -30.375 68.875 -29.375 65.875 C-29.31865585 64.32650126 -29.31300635 62.77585355 -29.33984375 61.2265625 C-29.33984375 49.63846437 -28.56716205 42.2072544 -21.54394531 32.65234375 C-19.18223542 29.06143982 -17.52328184 25.09203601 -15.75 21.1875 C-5.82223289 -0.30643331 -5.82223289 -0.30643331 0 0 Z " fill="#030303" transform="translate(86.375,38.125)"/>
<path d="M0 0 C7.84634775 2.61544925 11.14698499 10.03247552 14.70117188 16.92871094 C16.66017523 21.05587129 18.05786138 25.36204979 19.421875 29.71875 C22.02979422 36.56030431 26.22284347 40.46810653 31.796875 44.9453125 C33.625 46.875 33.625 46.875 33.625 50.875 C32.09619141 52.21533203 32.09619141 52.21533203 29.9765625 53.3828125 C29.21859375 53.81207031 28.460625 54.24132812 27.6796875 54.68359375 C26.47699219 55.33521484 26.47699219 55.33521484 25.25 56 C23.67831457 56.87514303 22.10794002 57.75264562 20.5390625 58.6328125 C19.8373291 59.0158252 19.1355957 59.39883789 18.41259766 59.79345703 C16.46789925 60.87279627 16.46789925 60.87279627 14.625 62.875 C15.02337381 65.97709115 16.35317746 68.45304126 17.8125 71.1875 C20.05734997 75.62437993 22.12667816 80.10902112 24.0625 84.6875 C24.48728638 85.63846558 24.48728638 85.63846558 24.9206543 86.60864258 C26.13444031 89.54930623 26.72188825 91.43162398 26.03515625 94.57421875 C23.19474057 99.20858118 20.29589696 101.33954087 15.1875 103.125 C13.79724609 103.62773437 13.79724609 103.62773437 12.37890625 104.140625 C9.65807622 104.86617968 7.42487835 105.01728057 4.625 104.875 C4.34011719 105.45378906 4.05523437 106.03257812 3.76171875 106.62890625 C3.38660156 107.37011719 3.01148438 108.11132812 2.625 108.875 C2.30144531 109.52339844 1.97789063 110.17179687 1.64453125 110.83984375 C-2.88337528 118.23982043 -10.3937792 119.9469002 -18.375 121.875 C-19.365 121.875 -20.355 121.875 -21.375 121.875 C-21.375 113.295 -21.375 104.715 -21.375 95.875 C-23.128125 98.246875 -24.88125 100.61875 -26.6875 103.0625 C-27.23446533 103.80008545 -27.78143066 104.5376709 -28.3449707 105.29760742 C-30.39645083 108.08447412 -32.31227761 110.76069569 -33.98046875 113.80078125 C-35.375 115.875 -35.375 115.875 -37.5625 116.6875 C-38.160625 116.749375 -38.75875 116.81125 -39.375 116.875 C-38.037027 110.01108973 -36.56748131 103.32318631 -34.42553711 96.67016602 C-31.79594322 88.4658711 -30.7205517 80.89494911 -30.515625 72.2890625 C-30.375 68.875 -30.375 68.875 -29.375 65.875 C-29.31865585 64.32650126 -29.31300635 62.77585355 -29.33984375 61.2265625 C-29.33984375 49.63846437 -28.56716205 42.2072544 -21.54394531 32.65234375 C-19.18223542 29.06143982 -17.52328184 25.09203601 -15.75 21.1875 C-5.82223289 -0.30643331 -5.82223289 -0.30643331 0 0 Z " fill="#202020" transform="translate(86.375,38.125)"/>
<path d="M0 0 C2 2 4 4 6 6 C12.81226962 6.57506172 18.7487312 6.24912023 25.0625 3.55859375 C27.5117148 2.85246932 28.66552359 2.97925728 31 4 C37.15543812 11.10614715 40.02656413 21.22497427 43 30 C43.26683594 30.74507812 43.53367188 31.49015625 43.80859375 32.2578125 C44 34 44 34 43.171875 35.78125 C38.74164036 41.13647869 33.72716703 43.42347323 27 45 C24.16015625 45.09765625 24.16015625 45.09765625 22 45 C21.72414063 45.57621094 21.44828125 46.15242188 21.1640625 46.74609375 C18.05999139 52.7563254 14.86512616 57.35839787 8.3203125 59.625 C4.87554586 60.18172996 1.48856599 60.02120977 -2 60 C-2.07422923 54.94632167 -2.12863915 49.8929616 -2.16479492 44.83886719 C-2.17986933 43.12006095 -2.20033229 41.40129309 -2.22631836 39.68261719 C-2.26276165 37.21019003 -2.27973958 34.738272 -2.29296875 32.265625 C-2.30845261 31.49881409 -2.32393646 30.73200317 -2.33988953 29.94195557 C-2.34090189 26.72317749 -2.21871896 24.40333205 -0.66918945 21.54589844 C1 20 1 20 4 19 C3.51937373 13.99667976 3.51937373 13.99667976 1.4375 9.5 C-0.44612287 6.22413415 -0.21841992 3.71313863 0 0 Z " fill="#F6F6F6" transform="translate(69,98)"/>
<path d="M0 0 C3.30744013 1.10248004 5.190168 2.37253378 7.625 4.875 C8.75 7.8125 8.75 7.8125 8.625 10.875 C5.79592391 14.45294917 2.61220966 16.71051476 -1.375 18.875 C-0.715 19.205 -0.055 19.535 0.625 19.875 C1.9999149 22.77759811 2.625 24.63638705 2.625 27.875 C-1.20489106 29.67730168 -4.15621808 30.07122241 -8.375 29.875 C-8.87 32.35 -8.87 32.35 -9.375 34.875 C-10.365 34.875 -11.355 34.875 -12.375 34.875 C-11.715 32.235 -11.055 29.595 -10.375 26.875 C-11.035 26.875 -11.695 26.875 -12.375 26.875 C-13.035 28.195 -13.695 29.515 -14.375 30.875 C-15.365 30.875 -16.355 30.875 -17.375 30.875 C-18.52082526 27.43799653 -18.39502937 26.9234838 -16.8984375 23.30078125 C-16.19518014 21.92303236 -15.47830232 20.55217529 -14.75 19.1875 C-14.38044189 18.47577637 -14.01088379 17.76405273 -13.63012695 17.03076172 C-12.55650711 14.97258021 -11.46667399 12.92364404 -10.375 10.875 C-9.86582031 9.89144531 -9.35664062 8.90789063 -8.83203125 7.89453125 C-4.52037567 -0.23791451 -4.52037567 -0.23791451 0 0 Z " fill="#4B4B4B" transform="translate(86.375,38.125)"/>
<path d="M0 0 C0.66 0 1.32 0 2 0 C2.20086443 3.71599191 2.1519437 4.77208445 0 8 C0.99 8 1.98 8 3 8 C3.33 6.35 3.66 4.7 4 3 C12.03571429 1.66071429 12.03571429 1.66071429 16 4 C14.9652067 5.08990063 13.92172639 6.17155463 12.875 7.25 C12.29492188 7.85328125 11.71484375 8.4565625 11.1171875 9.078125 C8.58937811 11.37274164 5.84421848 13.11327619 3 15 C0.9114121 16.68663325 -1.14761942 18.38244042 -3.1875 20.125 C-11.27514577 27 -11.27514577 27 -15 27 C-15.34058397 18.48540076 -13.85543131 12.95461031 -9.12109375 5.83203125 C-7.83810114 3.89004926 -7.83810114 3.89004926 -7 1 C-6.34 1 -5.68 1 -5 1 C-4.34 1.99 -3.68 2.98 -3 4 C-2.54625 3.34 -2.0925 2.68 -1.625 2 C-1.08875 1.34 -0.5525 0.68 0 0 Z " fill="#3B3B3B" transform="translate(74,65)"/>
<path d="M0 0 C2.43986543 2.25273711 4.13659937 4.5734969 5.8125 7.4375 C6.27269531 8.19933594 6.73289062 8.96117187 7.20703125 9.74609375 C8 12 8 12 7.36328125 14.08203125 C5.88234125 16.16553136 4.35474236 17.6368766 2.375 19.25 C1.74335937 19.77078125 1.11171875 20.2915625 0.4609375 20.828125 C-0.02117187 21.21484375 -0.50328125 21.6015625 -1 22 C-1.69029297 21.30390625 -1.69029297 21.30390625 -2.39453125 20.59375 C-3.46339592 19.53268726 -4.56182965 18.50059586 -5.6875 17.5 C-7 16 -7 16 -7 13 C-7.99 12.67 -8.98 12.34 -10 12 C-9.36191406 11.63648438 -8.72382812 11.27296875 -8.06640625 10.8984375 C-2.71292363 7.85333488 -2.71292363 7.85333488 0.0625 2.625 C0.041875 1.75875 0.02125 0.8925 0 0 Z " fill="#3B3B3B" transform="translate(94,45)"/>
<path d="M0 0 C1.25664978 2.90600261 2 4.79604584 2 8 C-1.82989106 9.80230168 -4.78121808 10.19622241 -9 10 C-9.33 11.65 -9.66 13.3 -10 15 C-10.99 15 -11.98 15 -13 15 C-11.55388739 8.80237451 -9.69765025 5.02507225 -4.71875 0.99609375 C-3 0 -3 0 0 0 Z " fill="#EDEDED" transform="translate(87,58)"/>
<path d="M0 0 C0.33 0 0.66 0 1 0 C1 9.9 1 19.8 1 30 C2.32 30.33 3.64 30.66 5 31 C3.02 31.33 1.04 31.66 -1 32 C-0.67 21.44 -0.34 10.88 0 0 Z " fill="#757575" transform="translate(66,128)"/>
<path d="M0 0 C0.99 0.33 1.98 0.66 3 1 C2.50628906 1.40992188 2.01257813 1.81984375 1.50390625 2.2421875 C0.86324219 2.78101563 0.22257812 3.31984375 -0.4375 3.875 C-1.07558594 4.40867187 -1.71367188 4.94234375 -2.37109375 5.4921875 C-4.10805004 6.9222757 -4.10805004 6.9222757 -5 9 C-3.35 9 -1.7 9 0 9 C0 9.33 0 9.66 0 10 C-1.98 10 -3.96 10 -6 10 C-6.33 11.65 -6.66 13.3 -7 15 C-7.99 15 -8.98 15 -10 15 C-8.55089427 8.78954685 -6.65505102 4.99037124 -1.71875 0.8984375 C-1.1515625 0.60195313 -0.584375 0.30546875 0 0 Z " fill="#BFBFBF" transform="translate(84,58)"/>
</svg>
