<?xml version="1.0" encoding="UTF-8"?>
<svg version="1.1" xmlns="http://www.w3.org/2000/svg" width="720" height="136">
<path d="M0 0 C237.6 0 475.2 0 720 0 C720 44.88 720 89.76 720 136 C482.4 136 244.8 136 0 136 C0 91.12 0 46.24 0 0 Z " fill="#FCFCFC" transform="translate(0,0)"/>
<path d="M0 0 C14.52 0 29.04 0 44 0 C45.89354002 4.41826005 47.48582231 8.28725692 48.8125 12.8125 C50.65832362 18.95817329 52.656734 25.04053962 54.71801758 31.11645508 C56.55693011 36.56954521 58.26480181 42.05777613 59.94726562 47.56103516 C61.00185591 51.0060627 62.06957524 54.44677615 63.140625 57.88671875 C63.84375 60.15364583 64.546875 62.42057292 65.25 64.6875 C65.61351563 65.85216797 65.97703125 67.01683594 66.3515625 68.21679688 C66.69445312 69.32474609 67.03734375 70.43269531 67.390625 71.57421875 C67.70032227 72.57026123 68.01001953 73.56630371 68.32910156 74.5925293 C69 77 69 77 69 79 C69.82725586 78.61142822 70.65451172 78.22285645 71.50683594 77.82250977 C74.58429047 76.37906174 77.66320708 74.93882842 80.74316406 73.50073242 C82.07449149 72.87831256 83.40522783 72.25462672 84.73535156 71.62963867 C86.65014166 70.73020252 88.56702904 69.8353786 90.484375 68.94140625 C91.63647461 68.40201416 92.78857422 67.86262207 93.97558594 67.30688477 C96.35483295 66.27878424 98.47173357 65.50185546 101 65 C95.25236857 79.940806 86.84018228 94.30123607 78.12109375 107.6953125 C75.96307172 111.05753467 73.98217267 114.53119783 72 118 C65.73 118 59.46 118 53 118 C28 57.43925234 28 57.43925234 28 43 C27.34 43 26.68 43 26 43 C25.96261719 43.92554688 25.92523438 44.85109375 25.88671875 45.8046875 C24.75612836 70.06295618 20.98741512 94.07550927 17 118 C4.79 118 -7.42 118 -20 118 C-20 112.8552599 -19.79004152 109.10168162 -18.79296875 104.203125 C-18.53749268 102.9238916 -18.2820166 101.6446582 -18.01879883 100.32666016 C-17.81500107 99.32786835 -17.81500107 99.32786835 -17.60708618 98.30889893 C-16.89732788 94.82613267 -16.21016009 91.33893266 -15.5234375 87.8515625 C-15.38825211 87.16657684 -15.25306671 86.48159119 -15.11378479 85.77584839 C-13.80883167 79.11627837 -12.72700667 72.43913369 -11.73828125 65.7265625 C-9.4716829 50.74230555 -6.52868575 35.84484682 -3.8125 20.9375 C-2.554375 14.028125 -1.29625 7.11875 0 0 Z " fill="#1269B9" transform="translate(20,7)"/>
<path d="M0 0 C14.52 0 29.04 0 44 0 C43.5625 13.875 43.5625 13.875 43.41430664 18.55322266 C43.17572315 26.12624124 42.95021745 33.6994084 42.74609375 41.2734375 C42.68395795 43.53485468 42.6216336 45.79626661 42.55929565 48.05767822 C42.52026354 49.50080191 42.48241074 50.94395806 42.4458313 52.387146 C42.25355775 59.9640742 41.92328039 67.49236627 41.23632812 75.04248047 C40.80033541 80.49869504 40.6686886 85.96761602 40.5 91.4375 C40.42976547 93.70711584 40.35685466 95.97665045 40.28125 98.24609375 C40.25095703 99.23279053 40.22066406 100.2194873 40.18945312 101.23608398 C39.90783729 106.8310213 39.42965534 112.41448057 39 118 C24.15 118 9.3 118 -6 118 C-4.87465139 106.74651387 -4.87465139 106.74651387 -4.0637207 102.89941406 C-3.88295486 102.03020325 -3.70218903 101.16099243 -3.51594543 100.26544189 C-3.32119125 99.35800232 -3.12643707 98.45056274 -2.92578125 97.515625 C-2.71946579 96.53873718 -2.51315033 95.56184937 -2.30058289 94.55535889 C-1.86363211 92.49418094 -1.42395777 90.43357866 -0.98168945 88.37353516 C-0.32354744 85.30156548 0.32223113 82.22718671 0.96679688 79.15234375 C8.35430577 44.29138846 8.35430577 44.29138846 12 37 C8.39490274 38.87321453 4.79110142 40.74890966 1.1875 42.625 C-0.31973633 43.40810547 -0.31973633 43.40810547 -1.85742188 44.20703125 C-7.89915746 47.35417326 -13.88920541 50.57176651 -19.8269043 53.91162109 C-22 55 -22 55 -24 55 C-21.71598608 47.58083913 -18.68292364 40.70315994 -15.375 33.6875 C-10.13687794 22.50585544 -5.06861285 11.26358411 0 0 Z " fill="#1572BE" transform="translate(123,7)"/>
<path d="M0 0 C4.62 0 9.24 0 14 0 C14.43570312 1.71703125 14.87140625 3.4340625 15.3203125 5.203125 C18.90633128 19.23849683 22.69426103 33.1680107 27 47 C27.1451001 46.4237085 27.2902002 45.84741699 27.43969727 45.25366211 C30.3365574 33.80728411 33.38001703 22.42362709 36.8125 11.125 C37.26508179 9.62827759 37.26508179 9.62827759 37.72680664 8.10131836 C39.87093974 1.12906026 39.87093974 1.12906026 41 0 C43.01964199 -0.07244053 45.04167124 -0.08377188 47.0625 -0.0625 C48.71958984 -0.04896484 48.71958984 -0.04896484 50.41015625 -0.03515625 C51.26480469 -0.02355469 52.11945313 -0.01195312 53 0 C56.26659466 10.01115187 58.91430721 20.15654737 61.53515625 30.3515625 C62.96772021 35.91648509 64.47317357 41.46028273 66 47 C67.25491252 43.98295379 68.32419089 41.05391254 69.078125 37.875 C69.36091309 36.70578003 69.36091309 36.70578003 69.64941406 35.51293945 C69.84760742 34.68366943 70.04580078 33.85439941 70.25 33 C72.10907409 25.39553551 74.10654943 17.84185729 76.25 10.3125 C76.63720215 8.94061523 76.63720215 8.94061523 77.03222656 7.54101562 C77.39525879 6.27741211 77.39525879 6.27741211 77.765625 4.98828125 C77.97993164 4.24102783 78.19423828 3.49377441 78.41503906 2.72387695 C79 1 79 1 80 0 C82.01964199 -0.07244053 84.04167124 -0.08377188 86.0625 -0.0625 C87.16722656 -0.05347656 88.27195312 -0.04445312 89.41015625 -0.03515625 C90.26480469 -0.02355469 91.11945313 -0.01195312 92 0 C91.40196409 4.01453807 90.54683826 7.7605317 89.3125 11.625 C87.53319793 17.2776564 85.8154804 22.94516109 84.125 28.625 C80.58653623 40.47042332 76.90946914 52.27159257 73 64 C68.38 64 63.76 64 59 64 C58.75765625 63.00742188 58.5153125 62.01484375 58.265625 60.9921875 C55.87821966 51.28613332 53.25717941 41.67167639 50.43554688 32.08154297 C49.87064036 30.15942461 49.31027344 28.23597394 48.75 26.3125 C48.41484375 25.17425781 48.0796875 24.03601563 47.734375 22.86328125 C47 20 47 20 47 17 C46.34 17 45.68 17 45 17 C44.89171875 18.11632812 44.7834375 19.23265625 44.671875 20.3828125 C44.04472741 25.37587216 42.68794878 30.06312581 41.25 34.875 C40.7103037 36.71986679 40.17125396 38.56492283 39.6328125 40.41015625 C39.36114258 41.33586426 39.08947266 42.26157227 38.80957031 43.21533203 C37.54340119 47.57055672 36.33219237 51.94062545 35.125 56.3125 C34.91004883 57.08899902 34.69509766 57.86549805 34.47363281 58.66552734 C33.98167728 60.44347904 33.49071383 62.2217052 33 64 C28.38 64 23.76 64 19 64 C18.50371094 62.31777344 18.00742187 60.63554688 17.49609375 58.90234375 C9.50474739 31.31792634 9.50474739 31.31792634 0.62890625 4.01171875 C0 2 0 2 0 0 Z " fill="#181818" transform="translate(436,33)"/>
<path d="M0 0 C3.96 0 7.92 0 12 0 C12 21.45 12 42.9 12 65 C8.04 65 4.08 65 0 65 C-0.33 63.35 -0.66 61.7 -1 60 C-1.763125 60.639375 -2.52625 61.27875 -3.3125 61.9375 C-9.05554889 66.34495613 -16.06539094 65.65348312 -23 65 C-27.84667089 63.46196976 -31.05804366 60.45788124 -34 56.375 C-36.38981417 51.55472855 -36.52729378 46.72279595 -36.625 41.4375 C-36.64820313 40.63425293 -36.67140625 39.83100586 -36.6953125 39.00341797 C-36.60553195 32.15905391 -34.23341753 27.34243257 -29.48657227 22.43554688 C-24.00389373 17.57588035 -18.9814816 17.72178184 -11.921875 17.7734375 C-7.24077717 18.13641033 -4.27040989 19.72959011 -1 23 C-0.67 15.41 -0.34 7.82 0 0 Z " fill="#171716" transform="translate(419,32)"/>
<path d="M0 0 C0.73412109 -0.01611328 1.46824219 -0.03222656 2.22460938 -0.04882812 C8.56163069 -0.05445104 12.89581473 1.58431388 18.3125 4.9375 C23.8106318 10.4356318 26.01337188 15.4868699 26.25 23.3125 C25.92428055 31.26691194 24.31557804 37.20183109 18.375 42.6875 C10.51230131 48.63407884 3.4592503 49.33932365 -6.3125 48.3125 C-9.34634517 47.39100497 -11.72304428 46.12070874 -14.3125 44.3125 C-15.22 43.755625 -16.1275 43.19875 -17.0625 42.625 C-21.97282818 37.57827381 -24.35296157 30.16133954 -24.6875 23.1875 C-24.59162575 16.72131424 -21.92896027 11.14505185 -17.5625 6.41796875 C-15.86393141 4.91341769 -14.20381103 3.56491178 -12.3125 2.3125 C-11.75304687 1.93738281 -11.19359375 1.56226563 -10.6171875 1.17578125 C-7.13348085 -0.1291326 -3.66918701 -0.01585647 0 0 Z " fill="#191918" transform="translate(297.3125,49.6875)"/>
<path d="M0 0 C2.02984998 1.20935506 3.65083775 2.45370348 5.3515625 4.08984375 C5.85042969 4.5590625 6.34929688 5.02828125 6.86328125 5.51171875 C12.42935915 11.44461554 12.3515625 17.20556225 12.3515625 25.08984375 C0.4715625 25.08984375 -11.4084375 25.08984375 -23.6484375 25.08984375 C-21.29236521 32.95813094 -21.29236521 32.95813094 -15.6484375 37.08984375 C-8.20381347 38.10646382 -2.74470807 37.52349507 3.3515625 33.08984375 C4.35752547 34.04191585 5.35617813 35.00171721 6.3515625 35.96484375 C6.9084375 36.49851563 7.4653125 37.0321875 8.0390625 37.58203125 C9.3515625 39.08984375 9.3515625 39.08984375 9.3515625 41.08984375 C7.79304495 41.90995687 6.22954534 42.72060588 4.6640625 43.52734375 C3.35888672 44.20603516 3.35888672 44.20603516 2.02734375 44.8984375 C-4.72557657 47.90521224 -12.90772256 48.30873348 -19.8984375 45.83984375 C-27.09013164 42.72247633 -31.4016235 38.94036639 -34.73046875 31.75390625 C-37.01828005 25.11438579 -36.50291352 18.05734753 -33.5859375 11.71484375 C-26.73511918 -0.35656983 -13.06950625 -4.49143799 0 0 Z " fill="#191919" transform="translate(655.6484375,50.91015625)"/>
<path d="M0 0 C0.75297363 0.00539795 1.50594727 0.0107959 2.28173828 0.01635742 C8.78465464 0.1949159 13.25451964 1.4459971 18.2578125 5.88671875 C21.45312856 9.51112011 20.75296235 14.07259226 20.72265625 18.60546875 C20.7212413 19.40028152 20.71982635 20.1950943 20.71836853 21.01399231 C20.71277378 23.55103325 20.70022228 26.08798575 20.6875 28.625 C20.68248432 30.34570185 20.67792153 32.06640508 20.67382812 33.78710938 C20.66280607 38.0039403 20.64554506 42.22070516 20.625 46.4375 C16.995 46.4375 13.365 46.4375 9.625 46.4375 C9.295 45.1175 8.965 43.7975 8.625 42.4375 C7.861875 43.076875 7.09875 43.71625 6.3125 44.375 C0.41096754 48.90408305 -7.27362439 48.126211 -14.375 47.4375 C-17.86390103 45.92322004 -19.47042427 43.62989528 -21.75 40.625 C-23.18832385 35.59086651 -23.04051117 31.82176323 -20.8125 27.1875 C-17.44736411 23.39093644 -13.89291241 21.6964562 -9.375 19.4375 C-7.92651418 19.35407841 -6.47429131 19.33017139 -5.0234375 19.33984375 C-4.17265625 19.34306641 -3.321875 19.34628906 -2.4453125 19.34960938 C-1.11113281 19.36217773 -1.11113281 19.36217773 0.25 19.375 C1.1471875 19.37951172 2.044375 19.38402344 2.96875 19.38867188 C5.18756648 19.40047409 7.40625018 19.41693845 9.625 19.4375 C9.39639942 17.97565942 9.14129608 16.51794581 8.875 15.0625 C8.73578125 14.25039063 8.5965625 13.43828125 8.453125 12.6015625 C7.81054999 10.3102846 7.81054999 10.3102846 5.79296875 9.17578125 C2.39744308 8.0194671 -0.87744396 7.70825248 -4.375 8.4375 C-5.138125 9.2625 -5.90125 10.0875 -6.6875 10.9375 C-9.9106283 13.93575889 -10.92003445 13.77721598 -15.1875 13.75 C-16.91795278 13.66999228 -18.64805325 13.57359913 -20.375 13.4375 C-19.61590586 8.55644305 -18.19364482 6.6621334 -14.375 3.4375 C-9.46574587 0.43699858 -5.59559871 -0.07611797 0 0 Z " fill="#151515" transform="translate(546.375,49.5625)"/>
<path d="M0 0 C3.96 0 7.92 0 12 0 C12.01401855 1.46808105 12.01401855 1.46808105 12.02832031 2.96582031 C12.06825458 6.60413791 12.13402134 10.24161291 12.20751953 13.87939453 C12.23570954 15.45252644 12.25693398 17.02579947 12.27099609 18.59912109 C12.29245442 20.86368956 12.33911348 23.12656504 12.390625 25.390625 C12.39185364 26.09181458 12.39308228 26.79300415 12.39434814 27.51544189 C12.49461735 30.87348729 12.79383184 32.72419086 14.82714844 35.44433594 C18.04340682 37.74703239 20.13177051 37.5335489 24 37 C28.24028619 34.7412063 28.24028619 34.7412063 31 31 C31.15520557 28.67726841 31.25019167 26.35040687 31.31640625 24.0234375 C31.33718735 23.33819 31.35796844 22.6529425 31.37937927 21.94692993 C31.44480185 19.75638931 31.50372554 17.56572811 31.5625 15.375 C31.60569218 13.8906125 31.6493067 12.40623722 31.69335938 10.921875 C31.80047553 7.28137916 31.90176362 3.64074749 32 0 C35.96 0 39.92 0 44 0 C44 15.18 44 30.36 44 46 C40.04 46 36.08 46 32 46 C31.505 43.525 31.505 43.525 31 41 C30.18595703 41.52400391 30.18595703 41.52400391 29.35546875 42.05859375 C28.64003906 42.51363281 27.92460937 42.96867187 27.1875 43.4375 C26.12595703 44.11619141 26.12595703 44.11619141 25.04296875 44.80859375 C20.8400425 47.25963105 16.747325 47.47996852 12 47 C6.79278876 45.35104977 4.03177697 43.54766546 1 39 C-0.61301773 35.77396455 -0.12053599 32.25289962 -0.09765625 28.7109375 C-0.0962413 27.89251373 -0.09482635 27.07408997 -0.09336853 26.23086548 C-0.0877629 23.61220675 -0.07520948 20.99363296 -0.0625 18.375 C-0.05748572 16.60156373 -0.05292269 14.82812613 -0.04882812 13.0546875 C-0.03779164 8.70309218 -0.02052325 4.3515605 0 0 Z " fill="#171717" transform="translate(331,51)"/>
<path d="M0 0 C1.19314819 0.01208496 1.19314819 0.01208496 2.41040039 0.02441406 C9.83640701 0.27829463 14.00403006 2.31287569 19.0625 7.6875 C20.0625 9.5625 20.0625 9.5625 20.0625 12.5625 C13.16488923 13.05323911 9.83632854 12.57907638 4.0625 8.5625 C-0.22216909 7.85524176 -3.25046586 8.10447724 -6.9375 10.5625 C-7.18780977 13.14630177 -7.18780977 13.14630177 -6.9375 15.5625 C-6.05449219 15.80484375 -5.17148437 16.0471875 -4.26171875 16.296875 C16.13397863 21.9927733 16.13397863 21.9927733 20.75 25.75 C22.63283799 29.78465283 22.80396915 33.19092145 22.0625 37.5625 C19.47570608 43.27500324 15.68377594 45.39348241 10.0625 47.5625 C2.21470773 50.04075019 -6.58596086 49.06991371 -13.9375 45.5625 C-17.62252758 43.37935341 -19.68192453 41.53003572 -20.8125 37.25 C-20.85375 36.363125 -20.895 35.47625 -20.9375 34.5625 C-10.77199836 33.93153783 -10.77199836 33.93153783 -7.375 36.5 C-6.900625 37.180625 -6.42625 37.86125 -5.9375 38.5625 C-3.61154054 39.72547973 -2.15026769 39.72850691 0.4375 39.75 C1.20835937 39.76417969 1.97921875 39.77835938 2.7734375 39.79296875 C5.28084888 39.54051607 6.89511902 38.81443467 9.0625 37.5625 C9.0625 35.5825 9.0625 33.6025 9.0625 31.5625 C5.16556865 29.83786937 1.43659633 29.00238721 -2.75 28.25 C-8.48976504 27.05747799 -13.59986715 25.67858709 -17.9375 21.5625 C-20.29515043 17.73717314 -20.63120737 13.96183406 -19.9375 9.5625 C-15.52187345 1.79099728 -8.31697024 -0.15710512 0 0 Z " fill="#181818" transform="translate(693.9375,49.4375)"/>
<path d="M0 0 C0.74701172 -0.02900391 1.49402344 -0.05800781 2.26367188 -0.08789062 C8.54506426 -0.15958343 11.96667639 1.75962847 16.5859375 6.09375 C17.31683594 6.94453125 17.31683594 6.94453125 18.0625 7.8125 C18.56523437 8.3796875 19.06796875 8.946875 19.5859375 9.53125 C20.6875 11.3125 20.6875 11.3125 20.6875 15.3125 C16.97993911 15.59576017 13.38447887 15.77188791 9.6875 15.3125 C7.625 12.875 7.625 12.875 6.6875 10.3125 C3.22499757 8.58124879 -0.52658229 8.83434776 -4.3125 9.3125 C-7.91612359 11.45933959 -9.77014231 13.45660579 -11.3125 17.3125 C-11.99987453 23.72204432 -12.19640842 29.90277042 -8.3125 35.3125 C-6.3713414 37.55229838 -5.10735592 38.23460124 -2.16015625 38.5234375 C1.4379986 38.58175443 4.24929554 38.45856815 7.6875 37.3125 C8.91270264 34.30402582 8.91270264 34.30402582 9.6875 31.3125 C13.6475 31.3125 17.6075 31.3125 21.6875 31.3125 C19.84129462 38.69732153 17.19981952 42.51583897 10.78515625 46.3671875 C4.70977381 49.10506935 -3.20990863 49.47864755 -9.59375 47.6640625 C-15.97591593 44.79208783 -19.65745711 40.07090481 -23.1875 34.1875 C-25.84483713 27.06391551 -25.38498622 18.74657391 -22.3125 11.875 C-17.15849716 2.83340644 -9.99369794 0.12736234 0 0 Z " fill="#191918" transform="translate(225.3125,49.6875)"/>
<path d="M0 0 C3.96 0 7.92 0 12 0 C13.72752788 4.68276517 15.45358349 9.3660532 17.17578125 14.05078125 C18.2260737 16.90621313 19.2848043 19.75756303 20.35546875 22.60546875 C20.89107422 24.03826172 20.89107422 24.03826172 21.4375 25.5 C21.74558594 26.3146875 22.05367187 27.129375 22.37109375 27.96875 C23 30 23 30 23 33 C23.66 33 24.32 33 25 33 C25.12310547 32.30092529 25.24621094 31.60185059 25.37304688 30.8815918 C26.04751961 27.78159115 26.98877533 24.89072664 28.03125 21.89453125 C28.42957031 20.74662109 28.82789063 19.59871094 29.23828125 18.41601562 C29.65464844 17.22685547 30.07101562 16.03769531 30.5 14.8125 C31.12455078 13.01135742 31.12455078 13.01135742 31.76171875 11.17382812 C34.85431644 2.29136712 34.85431644 2.29136712 36 0 C39.96 0 43.92 0 48 0 C44.15489351 11.36338381 39.86695274 22.50906969 35.34033203 33.61889648 C34.71360596 35.16299194 34.71360596 35.16299194 34.07421875 36.73828125 C33.51093872 38.11560425 33.51093872 38.11560425 32.9362793 39.52075195 C31.86434848 42.21436591 31.86434848 42.21436591 31 46 C26.38 46 21.76 46 17 46 C15.8553125 42.90625 15.8553125 42.90625 14.6875 39.75 C12.57294801 34.06577423 10.38386615 28.41270504 8.15234375 22.7734375 C7.9041539 22.14554321 7.65596405 21.51764893 7.4002533 20.87072754 C6.14087781 17.68635566 4.87722066 14.50376409 3.6081543 11.32324219 C3.1419165 10.14665039 2.67567871 8.97005859 2.1953125 7.7578125 C1.77266113 6.6970752 1.35000977 5.63633789 0.91455078 4.54345703 C0 2 0 2 0 0 Z " fill="#171717" transform="translate(571,51)"/>
<path d="M0 0 C3.96 0 7.92 0 12 0 C12 21.45 12 42.9 12 65 C8.04 65 4.08 65 0 65 C0 43.55 0 22.1 0 0 Z " fill="#171717" transform="translate(254,32)"/>
<path d="M0 0 C3.7716893 3.14307442 5.98204505 5.70456487 6.6015625 10.72265625 C6.79928583 17.97550735 6.03536604 22.66760881 1.1875 28.25 C-3.1040107 30.6240272 -6.95200302 30.6562528 -11.75 29.875 C-15.90772304 27.53628079 -17.31542557 25.32841801 -18.75 20.875 C-20.04882102 7.96230264 -20.04882102 7.96230264 -17 3.125 C-12.10740414 -1.76759586 -6.43868898 -2.63400913 0 0 Z " fill="#F9F9F9" transform="translate(304.75,59.125)"/>
<path d="M0 0 C3.8026029 2.0050088 5.61790841 3.42686262 8 7 C8.24891491 9.65412755 8.37018799 12.15867843 8.375 14.8125 C8.39949219 15.51181641 8.42398437 16.21113281 8.44921875 16.93164062 C8.47797998 22.0559329 7.36082688 24.94152855 4 29 C-0.24740799 31.83160532 -4.01346043 31.64522317 -9 31 C-13.15772304 28.66128079 -14.56542557 26.45341801 -16 22 C-17.30171432 9.05853783 -17.30171432 9.05853783 -14.1875 4.25 C-9.71213265 -0.35323499 -6.15002346 -0.87107841 0 0 Z " fill="#F9F9F9" transform="translate(411,58)"/>
<path d="M0 0 C0.33 0 0.66 0 1 0 C1.02501624 5.1737433 1.04300717 10.34745016 1.05493164 15.52124023 C1.05991116 17.27547826 1.0666972 19.02971224 1.07543945 20.78393555 C1.08778878 23.32862352 1.09329214 25.87325592 1.09765625 28.41796875 C1.10281754 29.18207565 1.10797882 29.94618256 1.11329651 30.73344421 C1.11397667 37.57552139 0.53020001 44.10739984 0 51 C-14.85 51 -29.7 51 -45 51 C-44.37275383 44.72753831 -43.71526299 38.89363736 -42.37109375 32.8046875 C-42.21713638 32.08636749 -42.06317902 31.36804749 -41.90455627 30.62796021 C-41.42065002 28.37583391 -40.92923689 26.12542796 -40.4375 23.875 C-40.10431501 22.33083755 -39.77162878 20.78656739 -39.43945312 19.2421875 C-38.63204469 15.49352564 -37.81790852 11.74638427 -37 8 C-36.34 8 -35.68 8 -35 8 C-32.51015823 16.57612166 -35.81182702 26.5621905 -37.5625 35.0625 C-38.7690625 40.9715625 -38.7690625 40.9715625 -40 47 C-28.45 47 -16.9 47 -5 47 C-4.38631329 40.21025268 -4.38631329 40.21025268 -3.77368164 33.42041016 C-3.21676298 27.276634 -2.6258432 21.13713802 -2 15 C-1.34 15 -0.68 15 0 15 C-0.37125 14.195625 -0.7425 13.39125 -1.125 12.5625 C-2.26881267 7.90554841 -1.3080025 4.52770096 0 0 Z " fill="#0E429C" transform="translate(162,74)"/>
<path d="M0 0 C14.52 0 29.04 0 44 0 C44.495 1.98 44.495 1.98 45 4 C44.01 4 43.02 4 42 4 C41.67 4.99 41.34 5.98 41 7 C41 6.01 41 5.02 41 4 C40.175 4.165 39.35 4.33 38.5 4.5 C34.63572557 5.0520392 30.88935642 5.06755596 27 5 C19.28146903 4.92558007 11.69257845 5.3172989 4 6 C3.855625 7.134375 3.71125 8.26875 3.5625 9.4375 C3 13 3 13 2 14 C1.65530449 15.81250985 1.36463494 17.63536106 1.09765625 19.4609375 C0.84532227 21.12769531 0.84532227 21.12769531 0.58789062 22.828125 C0.23884625 25.18449891 -0.10752718 27.54127007 -0.45117188 29.8984375 C-0.62068359 31.0121875 -0.79019531 32.1259375 -0.96484375 33.2734375 C-1.1155835 34.29872559 -1.26632324 35.32401367 -1.42163086 36.38037109 C-2 39 -2 39 -4 42 C-4 40.68 -4 39.36 -4 38 C-4.66 38 -5.32 38 -6 38 C-6.33 38.99 -6.66 39.98 -7 41 C-6.23132901 32.36947885 -4.5650974 23.93937897 -2.9375 15.4375 C-1.968125 10.343125 -0.99875 5.24875 0 0 Z " fill="#0E8ED5" transform="translate(20,7)"/>
<path d="M0 0 C14.52 0 29.04 0 44 0 C43.67 10.56 43.34 21.12 43 32 C42.67 32 42.34 32 42 32 C41.505 26.06 41.505 26.06 41 20 C40.34 20.99 39.68 21.98 39 23 C38.97309156 20.37493198 38.95320596 17.75013827 38.9375 15.125 C38.92912109 14.37863281 38.92074219 13.63226563 38.91210938 12.86328125 C38.88671875 7.2265625 38.88671875 7.2265625 40 5 C27.79 5.33 15.58 5.66 3 6 C1.35 9.3 -0.3 12.6 -2 16 C-2.66 15.67 -3.32 15.34 -4 15 C-4.66 16.32 -5.32 17.64 -6 19 C-6.66 19 -7.32 19 -8 19 C-5.82693253 12.48079759 -2.87970188 6.23935408 0 0 Z " fill="#1F98D7" transform="translate(123,7)"/>
<path d="M0 0 C0.33 0 0.66 0 1 0 C0.50626954 12.19003471 -1.07552563 23.95111699 -3 36 C-15.21 36 -27.42 36 -40 36 C-40 33.69 -40 31.38 -40 29 C-39.34 28.67 -38.68 28.34 -38 28 C-38 29.98 -38 31.96 -38 34 C-37.46987305 33.67854004 -36.93974609 33.35708008 -36.39355469 33.02587891 C-33.39511913 31.74074771 -30.96192929 31.67816781 -27.703125 31.5859375 C-26.49785156 31.54726562 -25.29257812 31.50859375 -24.05078125 31.46875 C-22.16939453 31.42234375 -22.16939453 31.42234375 -20.25 31.375 C-18.98027344 31.33632812 -17.71054687 31.29765625 -16.40234375 31.2578125 C-13.2683743 31.16355778 -10.13441051 31.07794834 -7 31 C-5.92606764 24.06687714 -4.85736633 17.13423331 -3.875 10.1875 C-3.70742188 9.00542969 -3.53984375 7.82335937 -3.3671875 6.60546875 C-3.18542969 5.31576172 -3.18542969 5.31576172 -3 4 C-2.34 4 -1.68 4 -1 4 C-0.67 2.68 -0.34 1.36 0 0 Z " fill="#1C3E99" transform="translate(40,89)"/>
<path d="M0 0 C1.28132812 0.00902344 2.56265625 0.01804687 3.8828125 0.02734375 C4.87023437 0.03894531 5.85765625 0.05054687 6.875 0.0625 C7.66234859 8.09345559 7.66234859 8.09345559 4.4375 12.0625 C3.591875 12.7225 2.74625 13.3825 1.875 14.0625 C1.545 14.3925 1.215 14.7225 0.875 15.0625 C-3.70785811 15.57170646 -7.76112443 15.90680392 -11.75 13.4375 C-13.54708081 10.33345134 -13.71390625 8.59593747 -13.125 5.0625 C-9.07933118 0.07284179 -6.24795437 -0.05679959 0 0 Z " fill="#F3F3F3" transform="translate(549.125,74.9375)"/>
<path d="M0 0 C3.125 1.5625 3.125 1.5625 5 4 C5.33 6.31 5.66 8.62 6 11 C-1.59 11 -9.18 11 -17 11 C-16 4 -16 4 -14.125 1.5625 C-9.44197234 -0.77901383 -5.13444211 -0.74780914 0 0 Z " fill="#F7F7F7" transform="translate(650,58)"/>
<path d="M0 0 C0.33 0 0.66 0 1 0 C1.02501624 5.1737433 1.04300717 10.34745016 1.05493164 15.52124023 C1.05991116 17.27547826 1.0666972 19.02971224 1.07543945 20.78393555 C1.08778878 23.32862352 1.09329214 25.87325592 1.09765625 28.41796875 C1.10281754 29.18207565 1.10797882 29.94618256 1.11329651 30.73344421 C1.11397667 37.57552139 0.53020001 44.10739984 0 51 C-14.85 51 -29.7 51 -45 51 C-45 49.35 -45 47.7 -45 46 C-44.67 47.32 -44.34 48.64 -44 50 C-29.81 50 -15.62 50 -1 50 C-3.05922402 47.94077598 -7.21708124 48.58572421 -10.0625 48.4375 C-10.82111328 48.39431641 -11.57972656 48.35113281 -12.36132812 48.30664062 C-14.24065438 48.20026367 -16.12030244 48.09960066 -18 48 C-18 47.67 -18 47.34 -18 47 C-13.71 47 -9.42 47 -5 47 C-4.86722656 45.52789062 -4.73445313 44.05578125 -4.59765625 42.5390625 C-4.41929543 40.56770611 -4.24090863 38.59635207 -4.0625 36.625 C-3.97548828 35.65949219 -3.88847656 34.69398437 -3.79882812 33.69921875 C-3.23375344 27.46246856 -2.63531187 21.22998963 -2 15 C-1.34 15 -0.68 15 0 15 C-0.37125 14.195625 -0.7425 13.39125 -1.125 12.5625 C-2.26881267 7.90554841 -1.3080025 4.52770096 0 0 Z " fill="#21499C" transform="translate(162,74)"/>
<path d="M0 0 C1 3 1 3 -0.01171875 5.43359375 C-1.58216981 8.24869134 -3.19278561 11.03796837 -4.81201172 13.82519531 C-6.14837737 16.27162878 -7.30389767 18.7741064 -8.47265625 21.3046875 C-15.15073013 34.94426444 -15.15073013 34.94426444 -20.40234375 36.89013672 C-26.05670195 37.7329762 -31.41727726 37.05114026 -37 36 C-37 34 -37 34 -35 32 C-32.41935871 31.85502015 -29.95056116 31.81322455 -27.375 31.875 C-26.31539062 31.88853516 -26.31539062 31.88853516 -25.234375 31.90234375 C-23.48943902 31.92592397 -21.74467705 31.96179539 -20 32 C-19.90074219 31.27039063 -19.80148438 30.54078125 -19.69921875 29.7890625 C-18.91342333 26.65466065 -17.75561532 24.9400838 -15.8125 22.375 C-13.17124115 18.76149863 -10.93858418 15.15922955 -8.875 11.1875 C-6.67456048 7.01669373 -4.5707758 4.06066497 -1 1 C-0.67 0.67 -0.34 0.34 0 0 Z " fill="#0B4098" transform="translate(110,89)"/>
<path d="M0 0 C-1.42749981 3.79049707 -3.16236542 7.27122456 -5.125 10.8125 C-5.66382812 11.78832031 -6.20265625 12.76414062 -6.7578125 13.76953125 C-7.16773437 14.50558594 -7.57765625 15.24164063 -8 16 C-8.99 16 -9.98 16 -11 16 C-10.45276317 12.62537285 -9.9451 10.91765 -8 8 C-9.35931641 8.70576172 -9.35931641 8.70576172 -10.74609375 9.42578125 C-17.38819986 12.83444658 -23.80796605 15.89199005 -31 18 C-31.33 17.01 -31.66 16.02 -32 15 C-24.31999808 10.8059564 -16.61139839 6.71751642 -8.6875 3 C-8.04804443 2.69763428 -7.40858887 2.39526855 -6.74975586 2.08374023 C-2.2497312 0 -2.2497312 0 0 0 Z " fill="#1867B1" transform="translate(121,72)"/>
<path d="M0 0 C14.52 0 29.04 0 44 0 C44 2.97 44 5.94 44 9 C43.67 9 43.34 9 43 9 C43 6.36 43 3.72 43 1 C33.1 1.495 33.1 1.495 23 2 C28.94 2.33 34.88 2.66 41 3 C41 3.33 41 3.66 41 4 C27.8 4.33 14.6 4.66 1 5 C0.67 3.35 0.34 1.7 0 0 Z M1 2 C5 3 5 3 5 3 Z " fill="#39A1DB" transform="translate(123,7)"/>
<path d="M0 0 C0.33 1.32 0.66 2.64 1 4 C2.15113281 3.97679688 3.30226563 3.95359375 4.48828125 3.9296875 C16.13573798 3.77180606 27.44645136 4.55095471 39 6 C39.33 5.34 39.66 4.68 40 4 C40 4.99 40 5.98 40 7 C25.81 7 11.62 7 -3 7 C-3 5.35 -3 3.7 -3 2 C-2.01 1.34 -1.02 0.68 0 0 Z " fill="#073191" transform="translate(121,117)"/>
<path d="M0 0 C0.33 0 0.66 0 1 0 C0.47932209 10.42726018 -0.471171 20.66927199 -2 31 C-2.33 30.34 -2.66 29.68 -3 29 C-3.99 29 -4.98 29 -6 29 C-6.09897339 24.84311778 -5.7144096 21.08801049 -5 17 C-4.64249731 14.70885139 -4.28834354 12.41717777 -3.9375 10.125 C-3.67259766 8.39636719 -3.67259766 8.39636719 -3.40234375 6.6328125 C-3.26957031 5.76398438 -3.13679688 4.89515625 -3 4 C-2.34 4 -1.68 4 -1 4 C-0.67 2.68 -0.34 1.36 0 0 Z " fill="#0C429A" transform="translate(40,89)"/>
<path d="M0 0 C0.33 0 0.66 0 1 0 C1.87489363 10.59593395 -0.72943921 20.72661824 -3 31 C-3.33 29.68 -3.66 28.36 -4 27 C-4.66 27 -5.32 27 -6 27 C-6.33 27.99 -6.66 28.98 -7 30 C-6.48190527 24.19733897 -5.63888975 18.48381165 -4.625 12.75 C-4.51115967 12.06486328 -4.39731934 11.37972656 -4.2800293 10.67382812 C-3.52776325 6.55869698 -2.46313732 3.39833919 0 0 Z " fill="#2483C5" transform="translate(20,18)"/>
<path d="M0 0 C14.52 0 29.04 0 44 0 C44 0.33 44 0.66 44 1 C30.8 1.33 17.6 1.66 4 2 C4 2.33 4 2.66 4 3 C10.93 3.495 10.93 3.495 18 4 C18 4.33 18 4.66 18 5 C13.38 5.33 8.76 5.66 4 6 C3.87625 7.134375 3.7525 8.26875 3.625 9.4375 C3.41875 10.613125 3.2125 11.78875 3 13 C2.01 13.495 2.01 13.495 1 14 C0.67 13.34 0.34 12.68 0 12 C-0.66 12.99 -1.32 13.98 -2 15 C-1.85737588 13.4372038 -1.71074489 11.87477304 -1.5625 10.3125 C-1.48128906 9.44238281 -1.40007813 8.57226562 -1.31640625 7.67578125 C-1.01156391 5.09779359 -0.50910741 2.54553705 0 0 Z " fill="#3EA4DC" transform="translate(20,7)"/>
<path d="M0 0 C1.19107392 3.57322175 0.75908434 4.21223217 -0.6875 7.5625 C-1.06003906 8.44164062 -1.43257812 9.32078125 -1.81640625 10.2265625 C-2.20699219 11.14179687 -2.59757812 12.05703125 -3 13 C-4.03001512 15.62118543 -5.05057364 18.24589827 -6.0703125 20.87109375 C-7 23 -7 23 -9 26 C-9.66 25.34 -10.32 24.68 -11 24 C-11 16.90577793 -7.28279999 11.11383851 -4 5 C-3.34 5 -2.68 5 -2 5 C-1.34 3.35 -0.68 1.7 0 0 Z " fill="#157AC0" transform="translate(119,21)"/>
<path d="M0 0 C0.33 0 0.66 0 1 0 C1 11.55 1 23.1 1 35 C0.67 35 0.34 35 0 35 C-0.33 32.69 -0.66 30.38 -1 28 C-1.66 28.33 -2.32 28.66 -3 29 C-2.67 26.36 -2.34 23.72 -2 21 C-1.34 21 -0.68 21 0 21 C-0.66 20.34 -1.32 19.68 -2 19 C-2.23046875 16.25 -2.23046875 16.25 -2.1875 13 C-2.18105469 11.9275 -2.17460937 10.855 -2.16796875 9.75 C-2 7 -2 7 -1 5 C-0.64386903 3.33805547 -0.30791692 1.671549 0 0 Z " fill="#1066B2" transform="translate(163,50)"/>
<path d="M0 0 C9.24 0 18.48 0 28 0 C28 4.62 28 9.24 28 14 C27.34 13.67 26.68 13.34 26 13 C26 9.37 26 5.74 26 2 C24.19015625 2.01740234 24.19015625 2.01740234 22.34375 2.03515625 C20.72916823 2.04454335 19.11458476 2.05364256 17.5 2.0625 C16.31277344 2.07506836 16.31277344 2.07506836 15.1015625 2.08789062 C9.97238283 2.10891185 5.07663894 1.73937287 0 1 C0 0.67 0 0.34 0 0 Z " fill="#0D8AD2" transform="translate(138,8)"/>
<path d="M0 0 C0.66 0 1.32 0 2 0 C4.04388648 7.04005343 2.16836624 14.20578578 0 21 C-0.99 20.34 -1.98 19.68 -3 19 C-2.48446121 12.50149789 -1.53332291 6.33773468 0 0 Z " fill="#1751A4" transform="translate(125,82)"/>
<path d="M0 0 C0.33 0 0.66 0 1 0 C1 12.54 1 25.08 1 38 C0.67 38 0.34 38 0 38 C-0.06058594 36.96359375 -0.12117187 35.9271875 -0.18359375 34.859375 C-0.26803371 33.48957127 -0.35267997 32.11978025 -0.4375 30.75 C-0.47681641 30.06808594 -0.51613281 29.38617188 -0.55664062 28.68359375 C-0.76796036 25.33498872 -1.14746984 22.2381818 -2 19 C-2 17.68 -2 16.36 -2 15 C-1.34 15 -0.68 15 0 15 C-0.37125 14.195625 -0.7425 13.39125 -1.125 12.5625 C-2.26881267 7.90554841 -1.3080025 4.52770096 0 0 Z " fill="#1D5BA7" transform="translate(162,74)"/>
<path d="M0 0 C0.66 0 1.32 0 2 0 C2.67812114 1.8708878 3.3419946 3.74694293 4 5.625 C4.37125 6.66914062 4.7425 7.71328125 5.125 8.7890625 C6.00483564 12.01774506 6.15988262 14.67244294 6 18 C5.01 17.67 4.02 17.34 3 17 C0.19130505 11.17455862 -0.40066311 6.41060973 0 0 Z " fill="#1461AB" transform="translate(82,68)"/>
<path d="M0 0 C2.09119704 2.27649298 3.01909114 3.35492044 2.92578125 6.5078125 C2.72339844 7.37148437 2.52101563 8.23515625 2.3125 9.125 C2.12300781 9.99382812 1.93351563 10.86265625 1.73828125 11.7578125 C1 14 1 14 -1 16 C-1.64767793 18.57061311 -1.64767793 18.57061311 -2 21 C-2.33 21 -2.66 21 -3 21 C-3.37369729 13.52605426 -2.04061541 7.17859349 0 0 Z " fill="#0E4CA0" transform="translate(8,79)"/>
<path d="M0 0 C2.7885289 -0.22107787 5.34653181 -0.28107535 8.125 -0.1875 C8.87910156 -0.17396484 9.63320312 -0.16042969 10.41015625 -0.14648438 C12.27374127 -0.11109985 14.13695978 -0.05729167 16 0 C16 0.99 16 1.98 16 3 C10.06 3 4.12 3 -2 3 C-1.34 2.01 -0.68 1.02 0 0 Z " fill="#062E8E" transform="translate(75,121)"/>
<path d="M0 0 C0.33 0 0.66 0 1 0 C1 12.87 1 25.74 1 39 C0.67 39 0.34 39 0 39 C-0.03758423 37.98631348 -0.03758423 37.98631348 -0.07592773 36.95214844 C-0.19210742 33.8845832 -0.31473437 30.81730842 -0.4375 27.75 C-0.47681641 26.68652344 -0.51613281 25.62304688 -0.55664062 24.52734375 C-0.59853516 23.50253906 -0.64042969 22.47773437 -0.68359375 21.421875 C-0.72025146 20.47924805 -0.75690918 19.53662109 -0.79467773 18.56542969 C-0.92494574 16.02519792 -0.92494574 16.02519792 -1.58227539 13.72363281 C-1.72012451 13.15483398 -1.85797363 12.58603516 -2 12 C-1.67 11.67 -1.34 11.34 -1 11 C-0.76636119 9.15108054 -0.58696365 7.29511969 -0.4375 5.4375 C-0.35371094 4.42558594 -0.26992187 3.41367187 -0.18359375 2.37109375 C-0.12300781 1.58863281 -0.06242188 0.80617187 0 0 Z " fill="#3485C2" transform="translate(164,34)"/>
<path d="M0 0 C1 3 1 3 0.00390625 5.48046875 C-0.47175781 6.37378906 -0.94742188 7.26710938 -1.4375 8.1875 C-1.91058594 9.08855469 -2.38367188 9.98960938 -2.87109375 10.91796875 C-3.24363281 11.60503906 -3.61617188 12.29210937 -4 13 C-4.66 12.34 -5.32 11.68 -6 11 C-6.99 11.66 -7.98 12.32 -9 13 C-7.11399805 7.65632782 -4.7782344 3.1854896 0 0 Z " fill="#0F519F" transform="translate(110,89)"/>
<path d="M0 0 C0.66 0.99 1.32 1.98 2 3 C0.68 5.31 -0.64 7.62 -2 10 C-8.27 10 -14.54 10 -21 10 C-21 9.67 -21 9.34 -21 9 C-15.06 9 -9.12 9 -3 9 C-3.33 7.35 -3.66 5.7 -4 4 C-2.0625 1.6875 -2.0625 1.6875 0 0 Z " fill="#2C4D9C" transform="translate(94,115)"/>
<path d="M0 0 C1.46491151 2.79607022 2.62245922 5.57006766 3.625 8.5625 C3.88539062 9.32691406 4.14578125 10.09132813 4.4140625 10.87890625 C5 13 5 13 5 16 C4.01 15.67 3.02 15.34 2 15 C2 14.01 2 13.02 2 12 C1.34 12 0.68 12 0 12 C-0.19401633 10.18818595 -0.38004375 8.37551468 -0.5625 6.5625 C-0.66691406 5.55316406 -0.77132812 4.54382813 -0.87890625 3.50390625 C-0.91886719 2.67761719 -0.95882812 1.85132812 -1 1 C-0.67 0.67 -0.34 0.34 0 0 Z " fill="#2088C9" transform="translate(69,23)"/>
<path d="M0 0 C0.309375 0.639375 0.61875 1.27875 0.9375 1.9375 C1.8345163 3.93610821 1.8345163 3.93610821 3 5 C3.07325168 7.86267567 3.09238205 10.700719 3.0625 13.5625 C3.05798828 14.36880859 3.05347656 15.17511719 3.04882812 16.00585938 C3.03700518 18.00393756 3.01906914 20.00197783 3 22 C2.67 22 2.34 22 2 22 C1.67 18.04 1.34 14.08 1 10 C0.34 10.99 -0.32 11.98 -1 13 C-1.02708567 11.39592672 -1.04643483 9.7917215 -1.0625 8.1875 C-1.07410156 7.29417969 -1.08570313 6.40085937 -1.09765625 5.48046875 C-1 3 -1 3 0 0 Z " fill="#2692CF" transform="translate(163,17)"/>
<path d="M0 0 C1.23593891 3.70781672 0.5678132 4.67510253 -0.9375 8.1875 C-1.31777344 9.08855469 -1.69804688 9.98960938 -2.08984375 10.91796875 C-2.39019531 11.60503906 -2.69054687 12.29210938 -3 13 C-4.32 12.67 -5.64 12.34 -7 12 C-6.1875 9.0625 -6.1875 9.0625 -5 6 C-4.01 5.67 -3.02 5.34 -2 5 C-0.78130071 2.49552484 -0.78130071 2.49552484 0 0 Z " fill="#1586CB" transform="translate(119,21)"/>
<path d="M0 0 C0.66 0 1.32 0 2 0 C2 3.63 2 7.26 2 11 C0.02 11.99 0.02 11.99 -2 13 C-1.48041715 8.62065881 -0.94324258 4.31196609 0 0 Z " fill="#274B9C" transform="translate(120,106)"/>
<path d="M0 0 C0.33 0 0.66 0 1 0 C1.05410687 1.77049689 1.09284119 3.54146849 1.125 5.3125 C1.14820313 6.29863281 1.17140625 7.28476562 1.1953125 8.30078125 C1 11 1 11 -1 14 C-2.84254375 10.20652758 -3.24522395 8.04697783 -2 4 C-0.9375 1.6875 -0.9375 1.6875 0 0 Z " fill="#198BCE" transform="translate(20,18)"/>
<path d="M0 0 C0.66 0.33 1.32 0.66 2 1 C1.67 4.63 1.34 8.26 1 12 C0.01 12 -0.98 12 -2 12 C-1.85831863 10.56208484 -1.71148957 9.1246763 -1.5625 7.6875 C-1.48128906 6.88699219 -1.40007813 6.08648437 -1.31640625 5.26171875 C-1 3 -1 3 0 0 Z " fill="#147FC5" transform="translate(17,27)"/>
<path d="M0 0 C0.33 0.66 0.66 1.32 1 2 C2.98 1.67 4.96 1.34 7 1 C7.33 1.99 7.66 2.98 8 4 C7.071875 4.144375 6.14375 4.28875 5.1875 4.4375 C1.99274889 4.92100111 1.99274889 4.92100111 -1 6 C-1.042721 4.33388095 -1.04063832 2.66617115 -1 1 C-0.67 0.67 -0.34 0.34 0 0 Z " fill="#0D66B0" transform="translate(106,51)"/>
<path d="M0 0 C2.29633824 3.44450737 2.54016485 5.93812283 3 10 C2.01 10.66 1.02 11.32 0 12 C-0.76173392 7.6835078 -1.16063604 4.25566547 0 0 Z " fill="#2280C3" transform="translate(74,39)"/>
<path d="M0 0 C0 0.66 0 1.32 0 2 C-4.455 3.485 -4.455 3.485 -9 5 C-9.33 4.01 -9.66 3.02 -10 2 C-6.3558226 -0.4294516 -4.28758728 -0.16179575 0 0 Z " fill="#084FA1" transform="translate(99,85)"/>
<path d="M0 0 C0.66 0.33 1.32 0.66 2 1 C1.67 4.96 1.34 8.92 1 13 C0.67 12.34 0.34 11.68 0 11 C-0.66 11 -1.32 11 -2 11 C-1.855625 10.29875 -1.71125 9.5975 -1.5625 8.875 C-0.98521625 5.92443859 -0.48304859 2.96729849 0 0 Z " fill="#184199" transform="translate(37,107)"/>
<path d="M0 0 C1 3 1 3 -0.25 5.6875 C-0.8275 6.450625 -1.405 7.21375 -2 8 C-2.99 8 -3.98 8 -5 8 C-4.64950425 4.75791433 -4.43778819 3.38472296 -1.9375 1.1875 C-1.298125 0.795625 -0.65875 0.40375 0 0 Z " fill="#0B5BA8" transform="translate(115,80)"/>
<path d="M0 0 C2.5570851 2.22355226 3.24170912 3.75018193 4 7 C4.66 7.33 5.32 7.66 6 8 C6 9.98 6 11.96 6 14 C3.2079853 12.60399265 2.99837067 10.99583616 1.875 8.125 C1.34519531 6.79855469 1.34519531 6.79855469 0.8046875 5.4453125 C0 3 0 3 0 0 Z " fill="#15419E" transform="translate(67,108)"/>
<path d="M0 0 C0.33 0 0.66 0 1 0 C0.88648483 1.81325551 0.75887039 3.62563357 0.625 5.4375 C0.55539063 6.44683594 0.48578125 7.45617187 0.4140625 8.49609375 C0.27742187 9.32238281 0.14078125 10.14867188 0 11 C-0.99 11.495 -0.99 11.495 -2 12 C-2.05422947 10.5629191 -2.09289723 9.12524538 -2.125 7.6875 C-2.14820313 6.88699219 -2.17140625 6.08648437 -2.1953125 5.26171875 C-2 3 -2 3 0 0 Z " fill="#0B469B" transform="translate(161,96)"/>
<path d="M0 0 C-0.33 0.66 -0.66 1.32 -1 2 C-4.64653273 3.11421833 -7.33291043 2.94296589 -11 2 C-7.374967 -1.625033 -4.81746234 -1.01907857 0 0 Z " fill="#155CAA" transform="translate(105,83)"/>
<path d="M0 0 C3.96 0 7.92 0 12 0 C12 1.32 12 2.64 12 4 C11.34 4 10.68 4 10 4 C10 3.34 10 2.68 10 2 C6.7 1.67 3.4 1.34 0 1 C0 0.67 0 0.34 0 0 Z " fill="#3E3D3D" transform="translate(516,33)"/>
<path d="M0 0 C0.33 0 0.66 0 1 0 C1.125 7.75 1.125 7.75 0 10 C-0.66 10 -1.32 10 -2 10 C-1.85950482 8.52031676 -1.71245174 7.04125484 -1.5625 5.5625 C-1.48128906 4.73878906 -1.40007813 3.91507812 -1.31640625 3.06640625 C-1 1 -1 1 0 0 Z " fill="#0C4499" transform="translate(40,89)"/>
<path d="M0 0 C0.33 0 0.66 0 1 0 C1 2.97 1 5.94 1 9 C-0.98 9.99 -0.98 9.99 -3 11 C-2.69078116 9.54096742 -2.37751201 8.08279278 -2.0625 6.625 C-1.88847656 5.81289062 -1.71445312 5.00078125 -1.53515625 4.1640625 C-1 2 -1 2 0 0 Z " fill="#0854A5" transform="translate(41,77)"/>
<path d="M0 0 C0.66 0 1.32 0 2 0 C3.4783226 2.95664519 3.06032783 5.74229737 3 9 C2.01 9 1.02 9 0 9 C0 6.03 0 3.06 0 0 Z " fill="#1A63B1" transform="translate(9,68)"/>
<path d="M0 0 C0.33 0 0.66 0 1 0 C1 2.97 1 5.94 1 9 C0.34 9 -0.32 9 -1 9 C-1.33 9.99 -1.66 10.98 -2 12 C-1.85904936 10.3745692 -1.71207913 8.74965949 -1.5625 7.125 C-1.48128906 6.22007813 -1.40007812 5.31515625 -1.31640625 4.3828125 C-1 2 -1 2 0 0 Z " fill="#1284C6" transform="translate(164,25)"/>
<path d="M0 0 C0.33 0.99 0.66 1.98 1 3 C0.01 3 -0.98 3 -2 3 C-2.33 3.99 -2.66 4.98 -3 6 C-3 5.01 -3 4.02 -3 3 C-4.98 3.33 -6.96 3.66 -9 4 C-8.01 3.67 -7.02 3.34 -6 3 C-6 2.34 -6 1.68 -6 1 C-4.02 0.67 -2.04 0.34 0 0 Z " fill="#1D97D7" transform="translate(64,8)"/>
<path d="M0 0 C0.99 0.33 1.98 0.66 3 1 C-0.96 4.465 -0.96 4.465 -5 8 C-5.33 7.01 -5.66 6.02 -6 5 C-1.60546875 0.99609375 -1.60546875 0.99609375 0 0 Z " fill="#1A1A1A" transform="translate(393,52)"/>
<path d="M0 0 C0.66 0.66 1.32 1.32 2 2 C0.741875 2.04125 -0.51625 2.0825 -1.8125 2.125 C-2.52019531 2.14820313 -3.22789063 2.17140625 -3.95703125 2.1953125 C-6 2 -6 2 -9 0 C-5.88135455 -1.55932272 -3.33704665 -0.65549131 0 0 Z " fill="#1A99D9" transform="translate(51,10)"/>
<path d="M0 0 C-0.33 1.65 -0.66 3.3 -1 5 C-1.33 4.01 -1.66 3.02 -2 2 C-2.61875 2.20625 -3.2375 2.4125 -3.875 2.625 C-4.57625 2.74875 -5.2775 2.8725 -6 3 C-6.66 2.34 -7.32 1.68 -8 1 C-2.25 -1.125 -2.25 -1.125 0 0 Z " fill="#0D70B6" transform="translate(137,42)"/>
<path d="M0 0 C2 2 2 2 2.125 5.625 C2.08375 6.73875 2.0425 7.8525 2 9 C1.34 8.67 0.68 8.34 0 8 C-1.27536232 2.55072464 -1.27536232 2.55072464 0 0 Z " fill="#11459D" transform="translate(65,98)"/>
<path d="M0 0 C0.33 0 0.66 0 1 0 C1 3.3 1 6.6 1 10 C0.01 9.34 -0.98 8.68 -2 8 C-2 6.68 -2 5.36 -2 4 C-1.34 4 -0.68 4 0 4 C0 2.68 0 1.36 0 0 Z " fill="#044A9E" transform="translate(162,85)"/>
</svg>
