<?xml version="1.0" encoding="UTF-8"?>
<svg version="1.1" xmlns="http://www.w3.org/2000/svg" width="226" height="176">
<path d="M0 0 C74.58 0 149.16 0 226 0 C226 58.08 226 116.16 226 176 C151.42 176 76.84 176 0 176 C0 117.92 0 59.84 0 0 Z " fill="#FAFAFB" transform="translate(0,0)"/>
<path d="M0 0 C0.97484848 0.00222061 1.94969696 0.00444122 2.9540863 0.00672913 C4.05515213 0.00680466 5.15621796 0.00688019 6.29064941 0.00695801 C7.48854599 0.01211929 8.68644257 0.01728058 9.92063904 0.02259827 C11.14000656 0.02401321 12.35937408 0.02542816 13.61569214 0.02688599 C17.52856349 0.03250485 21.4413786 0.04506055 25.35423279 0.05775452 C27.99941426 0.06276709 30.64459662 0.06733041 33.28977966 0.07142639 C39.79045005 0.08248041 46.2910874 0.09923688 52.79173279 0.12025452 C56.11599627 7.83033368 59.06954866 15.56212512 61.63938904 23.55384827 C61.97796432 24.59364334 62.31653961 25.63343842 62.66537476 26.70474243 C63.73295191 29.98759955 64.79359211 33.27265071 65.85423279 36.55775452 C66.56799483 38.75385808 67.28218448 40.94982271 67.99681091 43.14564514 C71.0574734 52.56533584 74.09857739 61.98832226 76.97947693 71.46473694 C77.78422349 74.09570428 78.6161588 76.71633499 79.45970154 79.33509827 C79.71300232 80.12335999 79.9663031 80.9116217 80.22727966 81.72377014 C80.73766552 83.30795482 81.25077986 84.89126253 81.76634216 86.47377014 C83.1120072 90.67766945 84.20649047 94.72741159 84.79173279 99.12025452 C85.74950623 98.63556702 86.70727966 98.15087952 87.69407654 97.65150452 C95.07016584 93.93164217 102.4697514 90.25875176 109.91673279 86.68275452 C110.61403503 86.34115295 111.31133728 85.99955139 112.0297699 85.64759827 C115.9544939 83.78035377 119.4173902 82.60402138 123.79173279 82.12025452 C121.73873666 89.00884615 118.92616128 95.28658548 115.66673279 101.68275452 C115.18099792 102.64512024 114.69526306 103.60748596 114.19480896 104.59901428 C110.62026415 111.62710133 106.8516041 118.52101578 102.92063904 125.35462952 C101.42835811 127.96048151 100.00884821 130.59245465 98.63157654 133.26087952 C98.10406799 134.27903748 98.10406799 134.27903748 97.56590271 135.31776428 C96.90834108 136.59542456 96.25809936 137.87689379 95.61717224 139.16297913 C93.04590045 144.14364583 90.24651907 148.30199242 84.79173279 150.12025452 C82.15556516 150.21704685 79.55207372 150.2594996 76.91673279 150.24525452 C76.20903748 150.2491217 75.50134216 150.25298889 74.77220154 150.25697327 C67.27916321 150.24301975 67.27916321 150.24301975 63.79173279 149.12025452 C62.43162537 147.19203186 62.43162537 147.19203186 61.37376404 144.58119202 C60.96078064 143.58184631 60.54779724 142.58250061 60.12229919 141.5528717 C59.68321228 140.42010803 59.24412537 139.28734436 58.79173279 138.12025452 C58.29761355 136.86920521 57.80330306 135.61823142 57.30882263 134.36732483 C55.66525482 130.17262782 54.07115131 125.95976196 52.47923279 121.74525452 C51.90418908 120.23024258 51.32882827 118.71535097 50.75315857 117.20057678 C49.61806617 114.21266599 48.48474995 111.22409107 47.35276794 108.23500061 C46.00124115 104.66866867 44.6394092 101.1063905 43.27220154 97.54603577 C42.90973328 96.60099182 42.54726501 95.65594788 42.17381287 94.68226624 C41.53024048 93.0050776 40.88564747 91.32828001 40.23973083 89.6519928 C35.63800857 77.61792218 32.40163195 67.12361564 32.79173279 54.12025452 C31.80173279 54.12025452 30.81173279 54.12025452 29.79173279 54.12025452 C29.80115906 54.91584778 29.81058533 55.71144104 29.82029724 56.53114319 C29.87167129 64.20732935 29.59726606 71.78281005 28.97923279 79.43275452 C28.89157654 80.54142883 28.80392029 81.65010315 28.71360779 82.79237366 C27.62740903 95.91510545 26.32277738 109.11227431 23.88548279 122.06166077 C22.32339317 130.71452145 21.09605052 139.42480299 19.79173279 148.12025452 C4.28173279 148.12025452 -11.22826721 148.12025452 -27.20826721 148.12025452 C-27.20826721 142.12385624 -27.07165557 136.916768 -26.08326721 131.12025452 C-25.95274963 130.32377502 -25.82223206 129.52729553 -25.6877594 128.7066803 C-24.25107457 120.09134965 -22.65418273 111.50353054 -21.07569885 102.9132843 C-18.81756607 90.62290404 -16.67573945 78.31486959 -14.58326721 65.99525452 C-14.43364532 65.11475433 -14.28402344 64.23425415 -14.12986755 63.32707214 C-13.54654906 59.89346269 -12.96355366 56.45979871 -12.38116455 53.02603149 C-10.68910114 43.05175302 -8.96631005 33.08311284 -7.20826721 23.12025452 C-7.03166565 22.11301331 -6.85506409 21.10577209 -6.67311096 20.06800842 C-6.12679006 16.95961443 -5.57464135 13.85231058 -5.02076721 10.74525452 C-4.85359192 9.7917511 -4.68641663 8.83824768 -4.51417542 7.85585022 C-4.35779602 6.98661926 -4.20141663 6.11738831 -4.04029846 5.22181702 C-3.90341614 4.45176331 -3.76653381 3.68170959 -3.62550354 2.88832092 C-3.00795408 0.27141443 -2.7266599 0.14848437 0 0 Z " fill="#1369B8" transform="translate(27.208267211914063,9.879745483398438)"/>
<path d="M0 0 C0.97484848 0.00222061 1.94969696 0.00444122 2.9540863 0.00672913 C4.05515213 0.00680466 5.15621796 0.00688019 6.29064941 0.00695801 C7.48854599 0.01211929 8.68644257 0.01728058 9.92063904 0.02259827 C11.14000656 0.02401321 12.35937408 0.02542816 13.61569214 0.02688599 C17.52856349 0.03250485 21.4413786 0.04506055 25.35423279 0.05775452 C27.99941426 0.06276709 30.64459662 0.06733041 33.28977966 0.07142639 C39.79045005 0.08248041 46.2910874 0.09923688 52.79173279 0.12025452 C52.80463694 3.26347979 52.81227899 6.40669808 52.81907654 9.54994202 C52.82274231 10.42739075 52.82640808 11.30483948 52.83018494 12.20887756 C52.83938038 17.90217227 52.68151382 23.5616714 52.35423279 29.24525452 C51.95029596 36.6645159 51.70276599 44.07897392 51.53782654 51.50697327 C51.51708572 52.43832092 51.49634491 53.36966858 51.47497559 54.32923889 C51.37139491 59.06887159 51.27485724 63.80857404 51.18455505 68.54847717 C51.14743203 70.32891478 51.11024391 72.10935104 51.07298279 73.88978577 C51.0526725 75.10597847 51.0526725 75.10597847 51.0319519 76.34674072 C50.93919856 80.62775213 50.61629336 84.77015743 50.03575134 89.01959229 C49.55271993 93.17782465 49.45156735 97.36127509 49.29173279 101.54212952 C49.23082458 103.01398712 49.23082458 103.01398712 49.16868591 104.51557922 C49.03988716 107.63368546 48.91538342 110.75194019 48.79173279 113.87025452 C48.66780443 116.97427254 48.54282176 120.07823193 48.41477966 123.18208313 C48.33549658 125.10544521 48.25849685 127.02890345 48.18431091 128.95246887 C47.90668596 135.70998805 47.35477132 142.36379214 46.79173279 149.12025452 C27.98173279 149.12025452 9.17173279 149.12025452 -10.20826721 149.12025452 C-9.08311445 132.2429631 -9.08311445 132.2429631 -7.64186096 125.60853577 C-7.48744537 124.883564 -7.33302979 124.15859222 -7.17393494 123.41165161 C-6.67508875 121.08292368 -6.16110841 118.75788251 -5.64576721 116.43275452 C-5.28722835 114.78333189 -4.9294137 113.13375168 -4.57228088 111.48402405 C-3.83229942 108.07479512 -3.08548393 104.66715592 -2.33424377 101.26039124 C-1.40244862 97.02493134 -0.4961795 92.78453878 0.39984131 88.54138184 C1.08608152 85.29824977 1.7824984 82.05735661 2.4811554 78.81687927 C2.8082085 77.29242828 3.13182707 75.76723561 3.45167542 74.24125671 C5.37152296 65.11210798 7.81417654 56.61366769 11.79173279 48.12025452 C7.86224771 50.14496711 3.93366513 52.17141795 0.00584412 54.19935608 C-1.32530043 54.88633635 -2.65667364 55.57287376 -3.98829651 56.25892639 C-5.9229292 57.25575408 -7.85677751 58.25408478 -9.79029846 59.25306702 C-10.42283539 59.57930054 -11.05537231 59.90553406 -11.70707703 60.24165344 C-16.54711791 62.74893791 -21.31141332 65.37739191 -26.04298401 68.08460999 C-28.20826721 69.12025452 -28.20826721 69.12025452 -31.20826721 69.12025452 C-31.43515162 65.17104778 -30.79159186 62.54210971 -29.20826721 58.93275452 C-28.74162659 57.86025452 -28.27498596 56.78775452 -27.79420471 55.68275452 C-27.27084534 54.50712952 -26.74748596 53.33150452 -26.20826721 52.12025452 C-25.68490784 50.92400452 -25.16154846 49.72775452 -24.62232971 48.49525452 C-20.26559977 38.57452281 -15.77701992 28.7113627 -11.30537415 18.84202576 C-10.61559402 17.31908515 -9.92650704 15.7958304 -9.2381134 14.27226257 C-8.26298813 12.11508633 -7.28486905 9.95929299 -6.30592346 7.80384827 C-5.85955788 6.81446762 -5.85955788 6.81446762 -5.4041748 5.80509949 C-2.83053495 0.15414104 -2.83053495 0.15414104 0 0 Z " fill="#1572BE" transform="translate(156.20826721191406,9.879745483398438)"/>
<path d="M0 0 C0.33 0 0.66 0 1 0 C1.02553888 7.1858646 1.04294555 14.37171731 1.05493164 21.55761719 C1.05993319 23.9977258 1.06673655 26.43783147 1.07543945 28.87792969 C1.0876893 32.40300225 1.09327026 35.92803489 1.09765625 39.453125 C1.10281754 40.5286261 1.10797882 41.6041272 1.11329651 42.71221924 C1.11337204 43.75239197 1.11344757 44.7925647 1.11352539 45.86425781 C1.115746 46.76138489 1.11796661 47.65851196 1.12025452 48.58282471 C0.93904023 53.73224449 0.42790075 58.86519098 0 64 C-18.81 64 -37.62 64 -57 64 C-55.84983403 46.74751048 -55.84983403 46.74751048 -54.1875 39.29296875 C-54.01371826 38.4754866 -53.83993652 37.65800446 -53.66088867 36.81575012 C-53.29931516 35.12375618 -52.93288117 33.43279339 -52.56152344 31.74291992 C-51.99128908 29.14785773 -51.43585709 26.54994689 -50.8828125 23.95117188 C-50.52686864 22.29409298 -50.17012859 20.63718486 -49.8125 18.98046875 C-49.56246216 17.81973091 -49.56246216 17.81973091 -49.30737305 16.63554382 C-48.11827676 11.23655352 -48.11827676 11.23655352 -47 9 C-46.01 9 -45.02 9 -44 9 C-39.41235478 18.17529043 -44.33320673 32.91582005 -46.5 42.375 C-47.655 47.53125 -48.81 52.6875 -50 58 C-35.81 58 -21.62 58 -7 58 C-6.25820361 47.61784435 -6.25820361 47.61784435 -5.53515625 37.234375 C-5.3781686 35.0728756 -5.22062058 32.91141682 -5.0625 30.75 C-4.95131836 29.08130859 -4.95131836 29.08130859 -4.83789062 27.37890625 C-4.71897461 25.79142578 -4.71897461 25.79142578 -4.59765625 24.171875 C-4.53070557 23.2240918 -4.46375488 22.27630859 -4.39477539 21.29980469 C-4 19 -4 19 -2 17 C-2.495 15.515 -2.495 15.515 -3 14 C-3.37402531 8.29611395 -3.01714173 5.02856955 0 0 Z " fill="#1B55A6" transform="translate(203,95)"/>
<path d="M0 0 C0.97484848 0.00222061 1.94969696 0.00444122 2.9540863 0.00672913 C4.05515213 0.00680466 5.15621796 0.00688019 6.29064941 0.00695801 C7.48854599 0.01211929 8.68644257 0.01728058 9.92063904 0.02259827 C11.14000656 0.02401321 12.35937408 0.02542816 13.61569214 0.02688599 C17.52856349 0.03250485 21.4413786 0.04506055 25.35423279 0.05775452 C27.99941426 0.06276709 30.64459662 0.06733041 33.28977966 0.07142639 C39.79045005 0.08248041 46.2910874 0.09923688 52.79173279 0.12025452 C52.80463694 3.26347979 52.81227899 6.40669808 52.81907654 9.54994202 C52.82274231 10.42739075 52.82640808 11.30483948 52.83018494 12.20887756 C52.83938038 17.90217227 52.68151382 23.5616714 52.35423279 29.24525452 C51.95029596 36.6645159 51.70276599 44.07897392 51.53782654 51.50697327 C51.51708572 52.43832092 51.49634491 53.36966858 51.47497559 54.32923889 C51.37139491 59.06887159 51.27485724 63.80857404 51.18455505 68.54847717 C51.14743203 70.32891478 51.11024391 72.10935104 51.07298279 73.88978577 C51.0526725 75.10597847 51.0526725 75.10597847 51.0319519 76.34674072 C50.92379628 81.33864126 50.48866237 86.17508766 49.79173279 91.12025452 C49.46173279 91.12025452 49.13173279 91.12025452 48.79173279 91.12025452 C48.76667664 90.38613342 48.74162048 89.65201233 48.71580505 88.89564514 C48.59757404 85.47043111 48.47612276 82.04534027 48.35423279 78.62025452 C48.31129089 77.38388245 48.268349 76.14751038 48.22410583 74.87367249 C47.9857433 68.31204567 47.64413209 61.78831984 47.10423279 55.24525452 C46.68971186 49.31006848 47.22446629 44.01791021 48.31126404 38.18275452 C49.04737901 33.49076966 48.96253446 28.85525632 48.79173279 24.12025452 C48.13173279 25.77025452 47.47173279 27.42025452 46.79173279 29.12025452 C46.46173279 29.12025452 46.13173279 29.12025452 45.79173279 29.12025452 C45.76278054 25.82860622 45.74495049 22.53699052 45.72923279 19.24525452 C45.72085388 18.30810608 45.71247498 17.37095764 45.70384216 16.40541077 C45.70061951 15.50951233 45.69739685 14.61361389 45.69407654 13.69056702 C45.68883972 12.86315002 45.68360291 12.03573303 45.6782074 11.1832428 C45.79173279 9.12025452 45.79173279 9.12025452 46.79173279 7.12025452 C45.97688416 7.19171692 45.16203552 7.26317932 44.32249451 7.33680725 C34.83021778 8.10016284 25.43289814 8.24010689 15.91673279 8.18275452 C14.43886975 8.17772114 12.96100502 8.17316154 11.48313904 8.16908264 C7.91930084 8.1582417 4.35552831 8.14108231 0.79173279 8.12025452 C0.49009216 9.0419342 0.18845154 9.96361389 -0.12232971 10.91322327 C-1.24058285 14.21569026 -2.40241832 17.13365827 -4.20826721 20.12025452 C-6.27076721 20.80775452 -6.27076721 20.80775452 -8.20826721 21.12025452 C-8.86826721 22.11025452 -9.52826721 23.10025452 -10.20826721 24.12025452 C-11.19826721 23.79025452 -12.18826721 23.46025452 -13.20826721 23.12025452 C-11.56607671 19.47276942 -9.91890905 15.82755387 -8.27076721 12.18275452 C-7.80219299 11.14183655 -7.33361877 10.10091858 -6.85084534 9.02845764 C-6.40289612 8.03910217 -5.9549469 7.0497467 -5.49342346 6.03041077 C-5.07971497 5.1139679 -4.66600647 4.19752502 -4.23976135 3.25331116 C-2.73865886 0.14913779 -2.73865886 0.14913779 0 0 Z " fill="#2291D0" transform="translate(156.20826721191406,9.879745483398438)"/>
<path d="M0 0 C0.66 0 1.32 0 2 0 C1.74206114 3.75099598 1.46597334 7.50047712 1.1875 11.25 C1.11724609 12.27480469 1.04699219 13.29960938 0.97460938 14.35546875 C0.18862937 24.73040486 -1.44117029 34.60780193 -3 45 C-18.51 45 -34.02 45 -50 45 C-50 42.03 -50 39.06 -50 36 C-48.515 35.505 -48.515 35.505 -47 35 C-47 37.31 -47 39.62 -47 42 C-46.42113037 41.68281006 -45.84226074 41.36562012 -45.24584961 41.03881836 C-38.10434459 37.73551323 -28.62407085 38.87983963 -20.9375 38.9375 C-19.78572266 38.94201172 -18.63394531 38.94652344 -17.44726562 38.95117188 C-14.63145482 38.96285574 -11.81575602 38.97923719 -9 39 C-8.91959473 38.32533691 -8.83918945 37.65067383 -8.75634766 36.95556641 C-8.38327784 33.84487728 -8.00417337 30.73495081 -7.625 27.625 C-7.49867187 26.56410156 -7.37234375 25.50320312 -7.2421875 24.41015625 C-6.43952394 17.86844822 -5.40484285 11.43991505 -4 5 C-3.34 5 -2.68 5 -2 5 C-1.855625 4.360625 -1.71125 3.72125 -1.5625 3.0625 C-1 1 -1 1 0 0 Z " fill="#1C419B" transform="translate(50,113)"/>
<path d="M0 0 C0.33 0 0.66 0 1 0 C1.02553888 7.1858646 1.04294555 14.37171731 1.05493164 21.55761719 C1.05993319 23.9977258 1.06673655 26.43783147 1.07543945 28.87792969 C1.0876893 32.40300225 1.09327026 35.92803489 1.09765625 39.453125 C1.10281754 40.5286261 1.10797882 41.6041272 1.11329651 42.71221924 C1.11337204 43.75239197 1.11344757 44.7925647 1.11352539 45.86425781 C1.115746 46.76138489 1.11796661 47.65851196 1.12025452 48.58282471 C0.93904023 53.73224449 0.42790075 58.86519098 0 64 C-18.81 64 -37.62 64 -57 64 C-57 61.69 -57 59.38 -57 57 C-56.67 57 -56.34 57 -56 57 C-56 58.65 -56 60.3 -56 62 C-38.18 62 -20.36 62 -2 62 C-5.11804292 60.96065236 -7.7076779 60.70431625 -10.98046875 60.46484375 C-12.14384766 60.37783203 -13.30722656 60.29082031 -14.50585938 60.20117188 C-15.72080078 60.11416016 -16.93574219 60.02714844 -18.1875 59.9375 C-19.41404297 59.84662109 -20.64058594 59.75574219 -21.90429688 59.66210938 C-24.93596295 59.43797842 -27.96784637 59.2174188 -31 59 C-31 58.67 -31 58.34 -31 58 C-23.08 58 -15.16 58 -7 58 C-6.814375 55.3084375 -6.814375 55.3084375 -6.625 52.5625 C-6.4784355 50.55807558 -6.33175192 48.55365969 -6.18408203 46.54931641 C-6.04849902 44.67165353 -5.91731201 42.79367196 -5.78857422 40.91552734 C-5.55529824 37.52633934 -5.30957443 34.13820751 -5.0625 30.75 C-4.98789551 29.63052979 -4.91329102 28.51105957 -4.83642578 27.35766602 C-4.75763184 26.30635498 -4.67883789 25.25504395 -4.59765625 24.171875 C-4.53070557 23.2240918 -4.46375488 22.27630859 -4.39477539 21.29980469 C-4 19 -4 19 -2 17 C-2.495 15.515 -2.495 15.515 -3 14 C-3.37402531 8.29611395 -3.01714173 5.02856955 0 0 Z " fill="#315AA6" transform="translate(203,95)"/>
<path d="M0 0 C0.33 0 0.66 0 1 0 C1.56029963 6.90258022 0.0550498 10.71926049 -3.5 16.5625 C-4.42211321 18.13972549 -5.34266192 19.71786659 -6.26171875 21.296875 C-6.72368652 22.08126953 -7.1856543 22.86566406 -7.66162109 23.67382812 C-10.32680722 28.30605968 -12.69662534 33.09811808 -15.11328125 37.86328125 C-17.6993416 42.16267351 -20.16442303 45.38814101 -25 47 C-27.63616763 47.09679233 -30.23965907 47.13924509 -32.875 47.125 C-33.58269531 47.12886719 -34.29039063 47.13273437 -35.01953125 47.13671875 C-38.80548044 47.12966857 -42.32039237 46.90907953 -46 46 C-45.49396008 43.83125748 -45.00016187 42.00032373 -44 40 C-37.4 40 -30.8 40 -24 40 C-23.67 37.69 -23.34 35.38 -23 33 C-22.0637207 31.00292969 -22.0637207 31.00292969 -20.92578125 29.421875 C-20.5083667 28.82358887 -20.09095215 28.22530273 -19.66088867 27.60888672 C-18.99343628 26.68873779 -18.99343628 26.68873779 -18.3125 25.75 C-15.15429638 21.23411119 -12.22656783 16.78031953 -9.6875 11.875 C-7.55206174 7.80375369 -5.47632997 4.99350636 -2 2 C-1.34 1.34 -0.68 0.68 0 0 Z " fill="#10449A" transform="translate(137,113)"/>
<path d="M0 0 C0.97484848 0.00222061 1.94969696 0.00444122 2.9540863 0.00672913 C4.05515213 0.00680466 5.15621796 0.00688019 6.29064941 0.00695801 C8.08749428 0.01469994 8.08749428 0.01469994 9.92063904 0.02259827 C11.14000656 0.02401321 12.35937408 0.02542816 13.61569214 0.02688599 C17.52856349 0.03250485 21.4413786 0.04506055 25.35423279 0.05775452 C27.99941426 0.06276709 30.64459662 0.06733041 33.28977966 0.07142639 C39.79045253 0.08248041 46.29108311 0.09975768 52.79173279 0.12025452 C52.79173279 6.72025452 52.79173279 13.32025452 52.79173279 20.12025452 C52.46173279 20.12025452 52.13173279 20.12025452 51.79173279 20.12025452 C51.79173279 14.18025452 51.79173279 8.24025452 51.79173279 2.12025452 C35.95173279 2.61525452 35.95173279 2.61525452 19.79173279 3.12025452 C29.36173279 3.45025452 38.93173279 3.78025452 48.79173279 4.12025452 C48.79173279 4.78025452 48.79173279 5.44025452 48.79173279 6.12025452 C32.11626663 6.80941425 15.48184432 7.27353105 -1.20826721 7.12025452 C-1.86826721 5.14025452 -2.52826721 3.16025452 -3.20826721 1.12025452 C-2.20826721 0.12025452 -2.20826721 0.12025452 0 0 Z " fill="#46A6DC" transform="translate(156.20826721191406,9.879745483398438)"/>
<path d="M0 0 C0.97484848 0.00222061 1.94969696 0.00444122 2.9540863 0.00672913 C4.05515213 0.00680466 5.15621796 0.00688019 6.29064941 0.00695801 C8.08749428 0.01469994 8.08749428 0.01469994 9.92063904 0.02259827 C11.14000656 0.02401321 12.35937408 0.02542816 13.61569214 0.02688599 C17.52856349 0.03250485 21.4413786 0.04506055 25.35423279 0.05775452 C27.99941426 0.06276709 30.64459662 0.06733041 33.28977966 0.07142639 C39.79045005 0.08248041 46.2910874 0.09923688 52.79173279 0.12025452 C53.28673279 1.11025452 53.28673279 1.11025452 53.79173279 2.12025452 C36.78826704 2.73760708 19.80938542 3.30236971 2.79173279 3.12025452 C2.79173279 3.78025452 2.79173279 4.44025452 2.79173279 5.12025452 C8.40173279 5.12025452 14.01173279 5.12025452 19.79173279 5.12025452 C19.79173279 5.78025452 19.79173279 6.44025452 19.79173279 7.12025452 C14.05212504 7.95510655 8.59231306 8.21088858 2.79173279 8.12025452 C2.46173279 11.09025452 2.13173279 14.06025452 1.79173279 17.12025452 C0.80173279 17.45025452 -0.18826721 17.78025452 -1.20826721 18.12025452 C-1.20826721 17.13025452 -1.20826721 16.14025452 -1.20826721 15.12025452 C-1.86826721 15.12025452 -2.52826721 15.12025452 -3.20826721 15.12025452 C-3.33201721 15.75962952 -3.45576721 16.39900452 -3.58326721 17.05775452 C-3.78951721 17.73837952 -3.99576721 18.41900452 -4.20826721 19.12025452 C-4.86826721 19.45025452 -5.52826721 19.78025452 -6.20826721 20.12025452 C-5.73572606 16.97338829 -5.25412854 13.82797544 -4.77076721 10.68275452 C-4.63606018 9.78492249 -4.50135315 8.88709045 -4.36256409 7.96205139 C-4.23043518 7.10804749 -4.09830627 6.25404358 -3.96217346 5.37416077 C-3.84172668 4.58340149 -3.72127991 3.79264221 -3.59718323 2.97792053 C-3.03423856 0.28900277 -2.77879134 0.15132327 0 0 Z " fill="#4AA8DD" transform="translate(27.208267211914063,9.879745483398438)"/>
<path d="M0 0 C0.66 0 1.32 0 2 0 C4.32565561 6.97696684 2.81031045 14.58133591 1.625 21.6875 C1.49867187 22.50283203 1.37234375 23.31816406 1.2421875 24.15820312 C0.52224376 28.61105518 -0.42208568 32.75335233 -2 37 C-2.66 37 -3.32 37 -4 37 C-4 36.01 -4 35.02 -4 34 C-4.99 34 -5.98 34 -7 34 C-7.33 34.66 -7.66 35.32 -8 36 C-7.3323418 23.84401623 -6.41063969 10.61071397 0 0 Z " fill="#1C81C5" transform="translate(24,25)"/>
<path d="M0 0 C0.495 1.98 0.495 1.98 1 4 C-0.65 4 -2.3 4 -4 4 C-4.33 4.66 -4.66 5.32 -5 6 C-5 5.34 -5 4.68 -5 4 C-5.66 4.33 -6.32 4.66 -7 5 C-9.62380313 5.15660883 -12.22524852 5.2582908 -14.8515625 5.31640625 C-15.62559418 5.33718735 -16.39962585 5.35796844 -17.19711304 5.37937927 C-19.67298392 5.44483448 -22.14896202 5.50374087 -24.625 5.5625 C-26.30209448 5.60568907 -27.97917807 5.64930348 -29.65625 5.69335938 C-33.77072308 5.80051171 -37.88530414 5.90179045 -42 6 C-42 5.67 -42 5.34 -42 5 C-39.36 5 -36.72 5 -34 5 C-34 4.34 -34 3.68 -34 3 C-39.61 3 -45.22 3 -51 3 C-51 2.34 -51 1.68 -51 1 C-33.9975156 -0.13215116 -17.03032131 -0.10689174 0 0 Z " fill="#1892D5" transform="translate(81,12)"/>
<path d="M0 0 C0.99 0.99 1.98 1.98 3 3 C1.09349221 10.77268561 1.09349221 10.77268561 -2 13 C-5.6687651 14.2229217 -9.0569469 14.14563812 -12.875 14.125 C-13.58269531 14.12886719 -14.29039063 14.13273438 -15.01953125 14.13671875 C-18.80548044 14.12966857 -22.32039237 13.90907953 -26 13 C-25.49396008 10.83125748 -25.00016187 9.00032373 -24 7 C-17.4 7 -10.8 7 -4 7 C-4 5.35 -4 3.7 -4 2 C-2.68 1.34 -1.36 0.68 0 0 Z " fill="#3256A2" transform="translate(117,146)"/>
<path d="M0 0 C0 1.32 0 2.64 0 4 C1.10730469 3.97679687 2.21460938 3.95359375 3.35546875 3.9296875 C18.63582036 3.72081469 33.77443131 4.80782719 49 6 C49 6.66 49 7.32 49 8 C31.18 8 13.36 8 -5 8 C-5 5.69 -5 3.38 -5 1 C-2 0 -2 0 0 0 Z " fill="#073292" transform="translate(152,149)"/>
<path d="M0 0 C2 3 2 3 2 5 C3.27488281 4.9278125 4.54976562 4.855625 5.86328125 4.78125 C20.91601465 3.98564199 35.92878802 3.88768301 51 4 C51 4.33 51 4.66 51 5 C40.32978048 5.86032949 29.76248343 6.12737806 19.0625 6.0625 C17.58919426 6.057465 16.11588682 6.0529057 14.64257812 6.04882812 C11.0950156 6.03800377 7.54751948 6.02085455 4 6 C3.69835937 6.92167969 3.39671875 7.84335937 3.0859375 8.79296875 C1.96768436 12.09543574 0.80584889 15.01340375 -1 18 C-3.0625 18.6875 -3.0625 18.6875 -5 19 C-5.66 19.99 -6.32 20.98 -7 22 C-7.99 21.67 -8.98 21.34 -10 21 C-8.52452278 17.68584432 -7.04400419 14.37396536 -5.5625 11.0625 C-5.14162109 10.11697266 -4.72074219 9.17144531 -4.28710938 8.19726562 C-3.88427734 7.29814453 -3.48144531 6.39902344 -3.06640625 5.47265625 C-2.69459229 4.64000244 -2.32277832 3.80734863 -1.93969727 2.94946289 C-1 1 -1 1 0 0 Z " fill="#2296D5" transform="translate(153,12)"/>
<path d="M0 0 C0.66 0 1.32 0 2 0 C1.88509088 2.68826864 1.75836801 5.37513469 1.625 8.0625 C1.57859375 9.19075195 1.57859375 9.19075195 1.53125 10.34179688 C1.27941541 15.18961281 0.50831635 19.38308043 -1 24 C-1.99 23.67 -2.98 23.34 -4 23 C-4.04898438 23.68707031 -4.09796875 24.37414062 -4.1484375 25.08203125 C-4.22320312 25.98308594 -4.29796875 26.88414062 -4.375 27.8125 C-4.44460937 28.70582031 -4.51421875 29.59914062 -4.5859375 30.51953125 C-5 33 -5 33 -7 36 C-10.93228784 28.13542432 -5.73013275 13.47656236 -4 5 C-3.34 5 -2.68 5 -2 5 C-1.855625 4.360625 -1.71125 3.72125 -1.5625 3.0625 C-1 1 -1 1 0 0 Z " fill="#0D459C" transform="translate(50,113)"/>
<path d="M0 0 C0.33 0 0.66 0 1 0 C1 17.16 1 34.32 1 52 C0.67 52 0.34 52 0 52 C-1.20516286 47.10845663 -1.33461434 42.19724878 -1.5625 37.1875 C-1.60568359 36.30384766 -1.64886719 35.42019531 -1.69335938 34.50976562 C-1.79891536 32.34000377 -1.89991071 30.1700209 -2 28 C-2.66 28.66 -3.32 29.32 -4 30 C-4.05391993 28.20866022 -4.09275571 26.41686101 -4.125 24.625 C-4.14820313 23.62726563 -4.17140625 22.62953125 -4.1953125 21.6015625 C-4 19 -4 19 -2 17 C-2.33 16.01 -2.66 15.02 -3 14 C-3.37402531 8.29611395 -3.01714173 5.02856955 0 0 Z " fill="#1E57A5" transform="translate(203,95)"/>
<path d="M0 0 C-0.5466488 8.18088206 -2.17123868 16.01785939 -4 24 C-4.33 22.68 -4.66 21.36 -5 20 C-6.65 20.33 -8.3 20.66 -10 21 C-8.9245283 6.11320755 -8.9245283 6.11320755 -7 0 C-4.3333581 -1.33332095 -2.83319697 -0.67102033 0 0 Z " fill="#13479F" transform="translate(157,129)"/>
<path d="M0 0 C0.99 0 1.98 0 3 0 C4.31763179 3.72940608 5.61697965 7.46464572 6.90014648 11.20605469 C7.55352441 13.09899625 8.2210064 14.98705051 8.88867188 16.875 C9.29794922 18.07382812 9.70722656 19.27265625 10.12890625 20.5078125 C10.70233765 22.15740967 10.70233765 22.15740967 11.28735352 23.84033203 C12.06202128 27.27498437 11.80845738 29.60044792 11 33 C9.02 33.495 9.02 33.495 7 34 C6.95101562 33.00097656 6.90203125 32.00195312 6.8515625 30.97265625 C6.77679688 29.68230469 6.70203125 28.39195313 6.625 27.0625 C6.52058594 25.13083984 6.52058594 25.13083984 6.4140625 23.16015625 C6.27742188 22.11730469 6.14078125 21.07445312 6 20 C5.34 19.67 4.68 19.34 4 19 C4 17.68 4 16.36 4 15 C3.01 15 2.02 15 1 15 C-0.32286246 10.03926578 -0.08893197 5.08888488 0 0 Z " fill="#2986C7" transform="translate(85,31)"/>
<path d="M0 0 C0.33 0 0.66 0 1 0 C2.06343577 5.20523826 2.1452154 10.20663789 2.1328125 15.4921875 C2.13376923 16.39695831 2.13472595 17.30172913 2.13571167 18.23391724 C2.13639 20.14178538 2.13455995 22.04965587 2.13037109 23.95751953 C2.12503047 26.85845196 2.13032145 29.75922868 2.13671875 32.66015625 C2.13605766 34.52083367 2.13477587 36.381511 2.1328125 38.2421875 C2.13584885 39.53006668 2.13584885 39.53006668 2.13894653 40.84396362 C2.11921211 45.98329843 1.73786113 50.91264169 1 56 C0.67 56 0.34 56 0 56 C-0.02505615 55.26587891 -0.0501123 54.53175781 -0.07592773 53.77539062 C-0.19415874 50.35017659 -0.31561003 46.92508576 -0.4375 43.5 C-0.48044189 42.26362793 -0.52338379 41.02725586 -0.56762695 39.75341797 C-0.80598949 33.19179115 -1.1476007 26.66806533 -1.6875 20.125 C-2.177307 13.19348887 -1.40649924 6.78839302 0 0 Z " fill="#3A88C5" transform="translate(205,45)"/>
<path d="M0 0 C0.33 0 0.66 0 1 0 C2.07320356 6.0864382 2.12907016 12.0130734 2.09765625 18.18359375 C2.0962413 19.23909927 2.09482635 20.2946048 2.09336853 21.38209534 C2.08779722 24.73392643 2.07525002 28.08568929 2.0625 31.4375 C2.05748129 33.71809799 2.05291903 35.99869703 2.04882812 38.27929688 C2.0378372 43.85288763 2.02112776 49.42643894 2 55 C1.67 55 1.34 55 1 55 C0.67 46.42 0.34 37.84 0 29 C-0.99 31.475 -0.99 31.475 -2 34 C-3.2380014 30.42355152 -2.74926071 27.66305234 -2 24 C-1.34 24 -0.68 24 0 24 C-0.66 23.01 -1.32 22.02 -2 21 C-2.265625 17.63671875 -2.265625 17.63671875 -2.25 13.6875 C-2.25515625 12.39199219 -2.2603125 11.09648438 -2.265625 9.76171875 C-2.01067704 6.15120569 -1.31094654 3.35539888 0 0 Z " fill="#166BB5" transform="translate(203,67)"/>
<path d="M0 0 C1.32 0 2.64 0 4 0 C6.60838688 7.53404602 8.54249536 13.99819339 8 22 C6.10546875 21.734375 6.10546875 21.734375 4 21 C2.98828125 19.328125 2.98828125 19.328125 2.3125 17.25 C2.0753125 16.52296875 1.838125 15.7959375 1.59375 15.046875 C0.09605177 9.88375743 -0.0907694 5.35539477 0 0 Z " fill="#1A66AE" transform="translate(102,87)"/>
<path d="M0 0 C0.99 0.33 1.98 0.66 3 1 C4.57587811 6.58720419 3.33657087 10.85336812 1 16 C0.34 16.66 -0.32 17.32 -1 18 C-1.39764263 19.98821313 -1.73775349 21.98944339 -2 24 C-2.66 24 -3.32 24 -4 24 C-3.91256271 21.12361482 -3.8056265 18.25015438 -3.6875 15.375 C-3.65366211 14.16263672 -3.65366211 14.16263672 -3.61914062 12.92578125 C-3.39493145 7.91164875 -2.65538135 4.39953264 0 0 Z " fill="#0F4FA2" transform="translate(10,103)"/>
<path d="M0 0 C11.22 0 22.44 0 34 0 C34 5.28 34 10.56 34 16 C33.34 15.67 32.68 15.34 32 15 C32 10.71 32 6.42 32 2 C29.94136719 2.02320313 27.88273437 2.04640625 25.76171875 2.0703125 C23.76603681 2.08421969 21.77035367 2.09805583 19.7746582 2.10986328 C18.38855952 2.1199157 17.00248201 2.1335597 15.61645508 2.15087891 C13.6233025 2.17515952 11.62999467 2.18542031 9.63671875 2.1953125 C7.83787231 2.21102295 7.83787231 2.21102295 6.00268555 2.22705078 C3 2 3 2 0 0 Z " fill="#0D8AD2" transform="translate(173,12)"/>
<path d="M0 0 C0.64317031 7.07487342 -1.17264102 11.09493185 -5 17 C-5.61875 16.67 -6.2375 16.34 -6.875 16 C-8.91018344 14.85806765 -8.91018344 14.85806765 -11 15 C-10.4676498 9.1441478 -7.09609186 4.80496799 -2.75 1.0625 C-1 0 -1 0 0 0 Z " fill="#1253A1" transform="translate(138,113)"/>
<path d="M0 0 C6.6 0 13.2 0 20 0 C20.33 1.32 20.66 2.64 21 4 C13.41 4 5.82 4 -2 4 C-1.34 2.68 -0.68 1.36 0 0 Z " fill="#062F8E" transform="translate(93,153)"/>
<path d="M0 0 C1.32 0.66 2.64 1.32 4 2 C3.34 2 2.68 2 2 2 C1.9175 2.825 1.835 3.65 1.75 4.5 C0.83552731 8.76753921 -0.92223178 12.19236894 -3 16 C-4.98 15.34 -6.96 14.68 -9 14 C-8.40917986 12.51545194 -7.80187345 11.03745649 -7.1875 9.5625 C-6.85105469 8.73878906 -6.51460937 7.91507813 -6.16796875 7.06640625 C-5 5 -5 5 -2 4 C-0.79117904 1.99983534 -0.79117904 1.99983534 0 0 Z " fill="#1885C9" transform="translate(148,29)"/>
<path d="M0 0 C0.33 0 0.66 0 1 0 C1 2.64 1 5.28 1 8 C2.32 8 3.64 8 5 8 C5.125 15.625 5.125 15.625 4 19 C3.34 19 2.68 19 2 19 C2 18.01 2 17.02 2 16 C1.01 16 0.02 16 -1 16 C-1.33 16.66 -1.66 17.32 -2 18 C-1.03644647 5.33029613 -1.03644647 5.33029613 0 0 Z " fill="#2987C8" transform="translate(18,43)"/>
<path d="M0 0 C0.66 0 1.32 0 2 0 C2.92350727 2.77052181 3.16329585 4.56688758 3.1875 7.4375 C3.20167969 8.19933594 3.21585938 8.96117187 3.23046875 9.74609375 C2.97612666 12.23347315 2.24017196 13.84808106 1 16 C0.34 16 -0.32 16 -1 16 C-1 14.68 -1 13.36 -1 12 C-1.99 11.34 -2.98 10.68 -4 10 C-2.8905928 6.51329166 -1.73662334 3.22515763 0 0 Z " fill="#1B8ACD" transform="translate(24,25)"/>
<path d="M0 0 C0.99 0.33 1.98 0.66 3 1 C3 5.62 3 10.24 3 15 C1.35 15.33 -0.3 15.66 -2 16 C-1.85764543 14.27054347 -1.71095618 12.54144346 -1.5625 10.8125 C-1.48128906 9.84957031 -1.40007812 8.88664063 -1.31640625 7.89453125 C-1.02333849 5.21350398 -0.57296246 2.6337014 0 0 Z " fill="#2C54A2" transform="translate(149,134)"/>
<path d="M0 0 C4.23905246 3.94670401 6.89529124 6.87092191 7.1875 12.8125 C7.125625 13.864375 7.06375 14.91625 7 16 C4 15 4 15 2.83203125 12.890625 C2.49558594 12.01921875 2.15914063 11.1478125 1.8125 10.25 C1.46832031 9.38890625 1.12414062 8.5278125 0.76953125 7.640625 C-0.01419245 4.95129902 -0.14520761 2.78398044 0 0 Z " fill="#1A47A1" transform="translate(84,138)"/>
<path d="M0 0 C1.85772162 0.08984301 3.71247985 0.24611861 5.5625 0.4375 C7.08037109 0.59025391 7.08037109 0.59025391 8.62890625 0.74609375 C9.80259766 0.87177734 9.80259766 0.87177734 11 1 C11 1.66 11 2.32 11 3 C9.75336669 3.50833591 8.50250613 4.00631145 7.25 4.5 C6.55390625 4.7784375 5.8578125 5.056875 5.140625 5.34375 C3 6 3 6 -1 6 C-1.042721 4.33388095 -1.04063832 2.66617115 -1 1 C-0.67 0.67 -0.34 0.34 0 0 Z " fill="#0C54A5" transform="translate(113,108)"/>
<path d="M0 0 C0.66 0 1.32 0 2 0 C2 3.96 2 7.92 2 12 C0.35 12.33 -1.3 12.66 -3 13 C-2.88490339 11.58249437 -2.75746342 10.16598831 -2.625 8.75 C-2.55539063 7.96109375 -2.48578125 7.1721875 -2.4140625 6.359375 C-1.98492887 3.914123 -1.21399362 2.15163097 0 0 Z " fill="#0957A8" transform="translate(51,98)"/>
<path d="M0 0 C0.33 0 0.66 0 1 0 C1 4.29 1 8.58 1 13 C0.34 13 -0.32 13 -1 13 C-1.33 14.32 -1.66 15.64 -2 17 C-3.75179535 11.74461396 -3.64761951 7.51111219 -1.5 2.5 C-1.005 1.675 -0.51 0.85 0 0 Z " fill="#1B5BA7" transform="translate(203,95)"/>
<path d="M0 0 C0.33 0.66 0.66 1.32 1 2 C3.64 1.67 6.28 1.34 9 1 C9.33 2.32 9.66 3.64 10 5 C6.37 5.66 2.74 6.32 -1 7 C-1.04254356 5.00045254 -1.04080783 2.99958364 -1 1 C-0.67 0.67 -0.34 0.34 0 0 Z " fill="#0D66B1" transform="translate(132,66)"/>
<path d="M0 0 C0.25 6.625 0.25 6.625 -2 10 C-3.32 10 -4.64 10 -6 10 C-6.3125 7.8125 -6.3125 7.8125 -6 5 C-1.66666667 0 -1.66666667 0 0 0 Z " fill="#0C5CA9" transform="translate(144,102)"/>
<path d="M0 0 C0.66 0 1.32 0 2 0 C1.69029779 3.35443107 1.37672949 6.70849025 1.0625 10.0625 C0.97548828 11.00544922 0.88847656 11.94839844 0.79882812 12.91992188 C0.32357317 17.97170607 -0.22789068 22.98476739 -1 28 C-1.33 28 -1.66 28 -2 28 C-2.18451025 18.58997722 -2.18451025 18.58997722 -1 14 C-1.99 13.67 -2.98 13.34 -4 13 C-2.68 12.34 -1.36 11.68 0 11 C0 7.37 0 3.74 0 0 Z " fill="#3880C2" transform="translate(53,99)"/>
<path d="M0 0 C0.33 0 0.66 0 1 0 C1 4.29 1 8.58 1 13 C0.01 13.33 -0.98 13.66 -2 14 C-2.05410687 12.22950311 -2.09284119 10.45853151 -2.125 8.6875 C-2.14820313 7.70136719 -2.17140625 6.71523437 -2.1953125 5.69921875 C-2 3 -2 3 0 0 Z " fill="#0C469B" transform="translate(201,122)"/>
<path d="M0 0 C4.29 0 8.58 0 13 0 C13 0.99 13 1.98 13 3 C13.66 3.33 14.32 3.66 15 4 C8.9453125 4.1953125 8.9453125 4.1953125 7 4 C6.34 3.34 5.68 2.68 5 2 C2.42938689 1.35232207 2.42938689 1.35232207 0 1 C0 0.67 0 0.34 0 0 Z " fill="#0E8CD3" transform="translate(59,13)"/>
<path d="M0 0 C0.66 0 1.32 0 2 0 C2 3.96 2 7.92 2 12 C0.68 11.34 -0.64 10.68 -2 10 C-2 8.35 -2 6.7 -2 5 C-1.34 5 -0.68 5 0 5 C0 3.35 0 1.7 0 0 Z " fill="#084C9F" transform="translate(202,108)"/>
<path d="M0 0 C1.485 0.99 1.485 0.99 3 2 C3.40843923 4.71203652 3.13336867 7.2437142 3 10 C2.01 10 1.02 10 0 10 C-0.19412181 8.52168779 -0.38012131 7.04230684 -0.5625 5.5625 C-0.66691406 4.73878906 -0.77132812 3.91507813 -0.87890625 3.06640625 C-0.91886719 2.38449219 -0.95882812 1.70257813 -1 1 C-0.67 0.67 -0.34 0.34 0 0 Z " fill="#134AA1" transform="translate(81,125)"/>
<path d="M0 0 C0.33 0 0.66 0 1 0 C1 3.96 1 7.92 1 12 C0.01 12 -0.98 12 -2 12 C-2.17835515 7.45194365 -1.99785435 4.1205746 0 0 Z " fill="#1283C5" transform="translate(205,33)"/>
</svg>
