<?xml version="1.0" encoding="UTF-8"?>
<svg version="1.1" xmlns="http://www.w3.org/2000/svg" width="295" height="250">
<path d="M0 0 C97.35 0 194.7 0 295 0 C295 82.5 295 165 295 250 C197.65 250 100.3 250 0 250 C0 167.5 0 85 0 0 Z " fill="#7C4EEF" transform="translate(0,0)"/>
<path d="M0 0 C52.8 0 105.6 0 160 0 C160 82.5 160 165 160 250 C104.56 250 49.12 250 -8 250 C-8 249.67 -8 249.34 -8 249 C-6.88625 248.7525 -5.7725 248.505 -4.625 248.25 C4.06241091 246.03977532 11.16026322 242.81377627 18 237 C19.06734375 236.11441406 19.06734375 236.11441406 20.15625 235.2109375 C26.55284508 229.68854375 32.26183463 223.57622132 38.01196289 217.39501953 C42.90772637 212.13377877 47.91630819 207.02357397 53.05859375 202.00390625 C55.05135366 200.14826045 55.05135366 200.14826045 56 198 C54.49373047 197.64421875 54.49373047 197.64421875 52.95703125 197.28125 C48.69649603 196.05630597 45.32716104 193.98594641 41.6875 191.5 C41.03378418 191.05495117 40.38006836 190.60990234 39.70654297 190.15136719 C23.23294046 178.64457813 11.08308707 160.68833909 7.38598633 140.77539062 C4.2823798 118.45926219 8.01684438 98.97337919 20.83984375 80.32421875 C30.47869406 67.64982049 42.7765339 57.9021342 58 53 C51.31027196 44.40475212 43.99765978 36.75220628 36.25 29.125 C35.12843104 28.01350015 34.007335 26.90152288 32.88671875 25.7890625 C30.83394625 23.75241919 28.77850712 21.71855732 26.71972656 19.68798828 C24.91184093 17.90120005 23.1103474 16.10792019 21.31542969 14.30810547 C16.2940341 9.30259367 11.67096175 6.13208181 5.26953125 3.11328125 C3 2 3 2 0 0 Z " fill="#FCFCFC" transform="translate(135,0)"/>
<path d="M0 0 C1.5015564 0.01353516 1.5015564 0.01353516 3.03344727 0.02734375 C25.45396023 0.54511359 44.04663024 10.0671617 59.5 26.125 C75.66939867 44.8687752 79.09143662 66.70396973 77.609375 90.73046875 C75.75127485 103.75736655 69.18448792 116.49481125 60.8125 126.4375 C60.07386719 127.36046875 59.33523438 128.2834375 58.57421875 129.234375 C46.85287173 143.12349978 29.82105553 152.13901026 11.8125 154.4375 C7.82801881 154.71333087 3.86813458 154.77114295 -0.125 154.75 C-1.17244385 154.74726074 -2.2198877 154.74452148 -3.29907227 154.74169922 C-10.42861606 154.64519664 -17.57932085 154.43247517 -24.1875 151.4375 C-24.5175 150.7775 -24.8475 150.1175 -25.1875 149.4375 C-24.135625 148.16519531 -24.135625 148.16519531 -23.0625 146.8671875 C-10.06250997 130.90063332 -0.99777479 113.80465231 2.8125 93.4375 C2.99554688 92.56738281 3.17859375 91.69726562 3.3671875 90.80078125 C7.28082299 61.24253427 -0.60478838 34.1801412 -18.1875 10.4375 C-18.94546875 9.51710938 -19.7034375 8.59671875 -20.484375 7.6484375 C-22.1875 5.4375 -22.1875 5.4375 -22.1875 3.4375 C-14.68707725 1.04955461 -7.86579965 -0.08607526 0 0 Z " fill="#E63CAD" transform="translate(217.1875,48.5625)"/>
<path d="M0 0 C1.53547428 2.04729904 3.06695268 4.10104732 4.48046875 6.234375 C9.45646204 13.56741774 15.34041108 19.56379435 21.71557617 25.69238281 C22.39724854 26.35206055 23.0789209 27.01173828 23.78125 27.69140625 C24.40064453 28.28123291 25.02003906 28.87105957 25.65820312 29.47875977 C27 31 27 31 27 33 C27.59941406 33.26167969 28.19882812 33.52335937 28.81640625 33.79296875 C31.14871583 35.08220607 32.27370745 36.2515156 33.9375 38.3125 C37.16559764 42.12564731 40.58251678 45.67069074 44.125 49.1875 C44.95656616 50.01411133 44.95656616 50.01411133 45.80493164 50.85742188 C47.53467745 52.5735904 49.26689335 54.28722589 51 56 C64.24878208 69.09334944 64.24878208 69.09334944 69.50976562 75.26513672 C80.43393651 87.98256108 93.00938471 98.938087 110 102 C110 102.33 110 102.66 110 103 C73.7 103 37.4 103 0 103 C0 69.01 0 35.02 0 0 Z " fill="#FCFCFC" transform="translate(0,147)"/>
<path d="M0 0 C33.33 0 66.66 0 101 0 C98 2 98 2 95.63793945 3.18383789 C85.44153196 8.48954963 78.12639889 16.27705044 70.1875 24.4375 C68.80906294 25.83248804 67.42951162 27.22637595 66.04882812 28.61914062 C60.39313341 34.34965205 54.85753367 40.1130934 49.58345032 46.19911194 C47.67814837 48.36604796 45.68273737 50.41524086 43.625 52.4375 C42.86703125 53.18773437 42.1090625 53.93796875 41.328125 54.7109375 C39.77604167 56.23697917 38.22395833 57.76302083 36.671875 59.2890625 C32.50141902 63.41696281 28.53747545 67.62428673 24.71533203 72.07519531 C22.38336174 74.6919408 19.8793312 77.10188875 17.35424805 79.53051758 C11.6894253 84.98176403 6.63368486 90.08637585 2.98046875 97.14453125 C2 99 2 99 0 101 C0 67.67 0 34.34 0 0 Z " fill="#FCFCFC" transform="translate(0,0)"/>
<path d="M0 0 C1.08635236 3.32069408 0.90041441 5.66205214 0.1875 9.0625 C0.01605469 9.91972656 -0.15539062 10.77695313 -0.33203125 11.66015625 C-1 14 -1 14 -3 17 C-2.34 17.33 -1.68 17.66 -1 18 C-1.66 18 -2.32 18 -3 18 C-3.268125 18.53625 -3.53625 19.0725 -3.8125 19.625 C-4.204375 20.40875 -4.59625 21.1925 -5 22 C-5.42539063 22.89332031 -5.85078125 23.78664062 -6.2890625 24.70703125 C-8.501573 28.96535626 -11.11339458 32.88767134 -13.77148438 36.87695312 C-15.93338743 40.17214092 -17.5473417 43.3517714 -19 47 C-21.125 48.3125 -21.125 48.3125 -23 49 C-22.01 49.66 -21.02 50.32 -20 51 C-18.515 50.505 -18.515 50.505 -17 50 C-16.17242187 50.46019531 -15.34484375 50.92039063 -14.4921875 51.39453125 C-9.70150462 53.59695929 -5.33876576 53.56386734 -0.125 53.6875 C0.84953125 53.72166016 1.8240625 53.75582031 2.828125 53.79101562 C5.21863491 53.87304293 7.60879905 53.94233848 10 54 C10 54.33 10 54.66 10 55 C-17.92341777 55.66048841 -17.92341777 55.66048841 -26 52 C-26.33 51.34 -26.66 50.68 -27 50 C-26.29875 49.15179688 -25.5975 48.30359375 -24.875 47.4296875 C-13.19249435 33.08126423 -4.89549718 17.91202941 0 0 Z " fill="#BC4AAB" transform="translate(219,148)"/>
<path d="M0 0 C0.99 0.33 1.98 0.66 3 1 C2.18917969 1.40089844 1.37835938 1.80179688 0.54296875 2.21484375 C-7.48204038 6.33478441 -14.17809422 11.0364059 -21 17 C-22.22629114 18.02428582 -23.45486166 19.04586137 -24.6875 20.0625 C-25.450625 20.701875 -26.21375 21.34125 -27 22 C-24.20966787 15.73206182 -18.50860839 10.93472028 -13 7 C-12.34 7 -11.68 7 -11 7 C-11 6.34 -11 5.68 -11 5 C-11.66 4.67 -12.32 4.34 -13 4 C-11.84371094 3.69255859 -11.84371094 3.69255859 -10.6640625 3.37890625 C-9.66117188 3.10949219 -8.65828125 2.84007812 -7.625 2.5625 C-6.62726563 2.29566406 -5.62953125 2.02882812 -4.6015625 1.75390625 C-2.04582299 1.09815644 -2.04582299 1.09815644 0 0 Z " fill="#754EB7" transform="translate(186,54)"/>
<path d="M0 0 C0.99902344 -0.01224609 1.99804688 -0.02449219 3.02734375 -0.03710938 C9.25302773 -0.0493166 14.72568684 0.60643026 20.75 2.1875 C20.75 2.5175 20.75 2.8475 20.75 3.1875 C18.54173622 3.21472517 16.33337362 3.23399729 14.125 3.25 C12.89523438 3.26160156 11.66546875 3.27320313 10.3984375 3.28515625 C6.75 3.1875 6.75 3.1875 3.84375 2.6875 C-0.16992333 2.03882552 -4.06801859 2.08030444 -8.125 2.125 C-9.300625 2.13176758 -9.300625 2.13176758 -10.5 2.13867188 C-12.41670014 2.15035907 -14.33336048 2.16829092 -16.25 2.1875 C-16.25 1.8575 -16.25 1.5275 -16.25 1.1875 C-10.80830677 -0.03730859 -5.55521323 0.00352936 0 0 Z " fill="#C04CA8" transform="translate(217.25,48.8125)"/>
<path d="M0 0 C-0.37898437 0.79083984 -0.37898437 0.79083984 -0.765625 1.59765625 C-1.13032301 5.33581082 1.10362818 7.58328216 3.25 10.4375 C9.49840775 19.00195795 9.49840775 19.00195795 11 22 C10.67 22.99 10.34 23.98 10 25 C9.33613281 23.91460937 8.67226562 22.82921875 7.98828125 21.7109375 C7.09659913 20.26547386 6.20465825 18.82016982 5.3125 17.375 C4.87744141 16.66214844 4.44238281 15.94929688 3.99414062 15.21484375 C1.89305306 11.82197642 -0.2240448 8.62811468 -2.83203125 5.6015625 C-5 3 -5 3 -5 1 C-3 0 -3 0 0 0 Z " fill="#AF5AA8" transform="translate(200,51)"/>
<path d="M0 0 C4.75 0.875 4.75 0.875 7 2 C5.59155282 5.21524305 3.89655214 7.32183868 1.375 9.75 C0.42753906 10.67039063 0.42753906 10.67039063 -0.5390625 11.609375 C-1.02117187 12.06828125 -1.50328125 12.5271875 -2 13 C-2.65234375 11.1640625 -2.65234375 11.1640625 -3 9 C-0.5625 6.375 -0.5625 6.375 2 4 C2 3.34 2 2.68 2 2 C1.34 1.34 0.68 0.68 0 0 Z " fill="#8B5ECF" transform="translate(184,196)"/>
<path d="M0 0 C1.09404518 3.33644983 0.89669485 5.7065788 0.1875 9.125 C0.01605469 9.99382812 -0.15539062 10.86265625 -0.33203125 11.7578125 C-1 14 -1 14 -3 16 C-3.69748583 17.31747324 -4.36959957 18.64914193 -5 20 C-6.31225821 16.06322538 -5.04812131 13.69405958 -3.625 10 C-3.15881669 8.75001398 -2.69266958 7.50001445 -2.2265625 6.25 C-1.82179687 5.1775 -1.41703125 4.105 -1 3 C-0.67 2.01 -0.34 1.02 0 0 Z " fill="#C45BAD" transform="translate(219,148)"/>
<path d="M0 0 C0.66 0.33 1.32 0.66 2 1 C1.75 2.875 1.75 2.875 1 5 C-1.0625 6.25 -1.0625 6.25 -3 7 C-2.34 7.33 -1.68 7.66 -1 8 C-1.33 8.66 -1.66 9.32 -2 10 C-3.65 9.67 -5.3 9.34 -7 9 C-5.03681826 5.46627288 -2.95929119 2.75520215 0 0 Z " fill="#AB44A9" transform="translate(199,190)"/>
<path d="M0 0 C0 3 0 3 -2.40625 5.48046875 C-3.43005231 6.39125392 -4.46167034 7.29331192 -5.5 8.1875 C-6.02464844 8.65091797 -6.54929688 9.11433594 -7.08984375 9.59179688 C-8.38666224 10.735355 -9.69249867 11.86867174 -11 13 C-11 10 -11 10 -9.35546875 8.02734375 C-8.64003906 7.33769531 -7.92460937 6.64804688 -7.1875 5.9375 C-6.47980469 5.24527344 -5.77210938 4.55304688 -5.04296875 3.83984375 C-3 2 -3 2 0 0 Z " fill="#F1E8F6" transform="translate(171,65)"/>
<path d="M0 0 C-0.226875 0.5775 -0.45375 1.155 -0.6875 1.75 C-1.26505193 4.12172477 -1.26505193 4.12172477 0.4375 6.25 C0.953125 6.8275 1.46875 7.405 2 8 C1.67 8.66 1.34 9.32 1 10 C-0.00593243 8.8803014 -1.0045849 7.7540588 -2 6.625 C-2.556875 5.99851562 -3.11375 5.37203125 -3.6875 4.7265625 C-5 3 -5 3 -5 1 C-3 0 -3 0 0 0 Z " fill="#A54FA5" transform="translate(200,51)"/>
<path d="M0 0 C-1.72078041 0.8709379 -3.45206323 1.72114558 -5.1875 2.5625 C-6.15042969 3.03816406 -7.11335937 3.51382813 -8.10546875 4.00390625 C-11.27718777 5.0953885 -12.83698225 4.96567452 -16 4 C-13.20344553 2.54120507 -10.41743581 1.34614948 -7.4375 0.3125 C-6.67308594 0.04050781 -5.90867188 -0.23148438 -5.12109375 -0.51171875 C-3 -1 -3 -1 0 0 Z " fill="#7C54C6" transform="translate(189,55)"/>
<path d="M0 0 C1 3 1 3 0.00390625 5.04296875 C-0.47175781 5.75066406 -0.94742188 6.45835937 -1.4375 7.1875 C-1.91058594 7.90292969 -2.38367188 8.61835938 -2.87109375 9.35546875 C-3.24363281 9.89816406 -3.61617187 10.44085938 -4 11 C-4.99 10.67 -5.98 10.34 -7 10 C-3.535 5.05 -3.535 5.05 0 0 Z " fill="#B559AE" transform="translate(206,179)"/>
<path d="M0 0 C4.455 1.98 4.455 1.98 9 4 C5 5 5 5 2.25 3.6875 C1.5075 3.130625 0.765 2.57375 0 2 C0 1.34 0 0.68 0 0 Z " fill="#DE58B4" transform="translate(247,54)"/>
</svg>
