<?xml version="1.0" standalone="no"?>
<!DOCTYPE svg PUBLIC "-//W3C//DTD SVG 20010904//EN"
 "http://www.w3.org/TR/2001/REC-SVG-20010904/DTD/svg10.dtd">
<svg version="1.0" xmlns="http://www.w3.org/2000/svg"
 width="300.000000pt" height="400.000000pt" viewBox="0 0 300.000000 400.000000"
 preserveAspectRatio="xMidYMid meet">
<metadata>
Created by potrace 1.10, written by Peter Selinger 2001-2011
</metadata>
<g transform="translate(0.000000,400.000000) scale(0.100000,-0.100000)"
fill="#000000" stroke="none">
<path d="M1481 3081 c-6 -11 -11 -53 -11 -94 0 -60 4 -77 19 -91 19 -17 20
-17 30 3 6 11 11 53 11 94 0 60 -4 77 -19 91 -19 17 -20 17 -30 -3z"/>
<path d="M1055 2976 c-17 -12 -16 -18 24 -90 37 -66 63 -96 85 -96 18 0 0 63
-34 121 -47 79 -51 83 -75 65z"/>
<path d="M1866 2899 c-37 -66 -44 -85 -35 -101 15 -27 30 -12 84 80 44 76 48
102 15 102 -12 0 -33 -27 -64 -81z"/>
<path d="M1360 2725 c-280 -79 -455 -320 -437 -600 8 -120 62 -253 137 -339
l29 -33 -24 -11 c-13 -6 -32 -23 -41 -37 -28 -42 -114 -237 -114 -257 0 -17
27 -18 578 -18 317 0 583 4 590 8 19 13 8 33 -90 174 l-88 128 27 30 c47 53
103 152 126 225 31 100 30 243 -3 344 -56 174 -189 309 -366 372 -80 28 -247
35 -324 14z m311 -69 c130 -45 239 -140 298 -260 39 -80 50 -133 51 -236 0
-93 -15 -161 -50 -230 -19 -38 -36 -62 -98 -140 -9 -12 -35 42 -64 135 -17 55
-36 106 -41 113 -6 8 -36 12 -84 12 -78 0 -109 11 -171 59 -43 33 -64 74 -56
106 6 25 8 25 104 25 55 0 102 4 105 10 3 5 -2 32 -12 59 -16 47 -16 51 1 89
10 22 15 45 12 51 -5 7 -45 11 -103 11 -90 0 -96 1 -115 25 -16 20 -23 23 -34
14 -11 -9 -14 -47 -14 -176 0 -103 -4 -172 -11 -186 -45 -85 -214 -337 -231
-343 -42 -13 -127 105 -162 225 -21 71 -21 211 0 282 60 201 214 342 414 379
67 13 187 2 261 -24z m-79 -226 l40 0 -8 -42 c-7 -42 -7 -50 -2 -93 3 -18 -5
-21 -72 -26 -41 -3 -85 -10 -97 -14 -23 -7 -23 -7 -23 90 l0 98 61 -7 c34 -3
80 -6 101 -6z m-97 -375 c66 -56 95 -67 156 -59 63 8 80 -6 104 -86 10 -34 23
-59 29 -57 6 2 20 -12 31 -32 11 -20 30 -40 43 -46 12 -5 22 -15 22 -22 0 -19
-12 -16 -45 13 -16 15 -40 33 -52 41 -12 8 -19 21 -17 28 4 8 -10 24 -35 40
-50 34 -102 35 -144 4 l-31 -22 -25 33 c-14 19 -37 47 -51 63 l-25 28 -62 -28
c-41 -18 -62 -33 -60 -43 2 -14 -62 -55 -71 -45 -9 8 34 70 49 70 8 0 38 37
68 83 30 45 57 82 59 82 3 0 28 -20 57 -45z m-9 -200 c43 -60 62 -66 101 -35
75 59 209 -24 332 -204 39 -58 76 -108 81 -111 36 -22 -26 -25 -505 -25 -283
0 -515 4 -514 8 0 4 21 50 47 102 45 91 49 96 106 126 59 32 116 78 116 95 0
9 167 98 186 98 6 1 28 -24 50 -54z"/>
<path d="M1202 1668 c-18 -18 -14 -46 8 -58 11 -6 18 -15 14 -21 -4 -6 -11 -6
-20 2 -11 9 -14 7 -14 -10 0 -19 5 -22 33 -19 26 2 33 8 35 29 2 14 -4 31 -12
39 -9 7 -16 17 -16 22 0 6 7 5 15 -2 13 -10 15 -9 15 9 0 15 -6 21 -23 21 -13
0 -28 -5 -35 -12z"/>
<path d="M1276 1643 c11 -77 13 -83 39 -83 26 0 31 10 38 83 2 30 0 37 -14 37
-13 0 -19 -10 -22 -37 l-4 -38 -1 38 c-2 29 -6 37 -21 37 -17 0 -19 -5 -15
-37z"/>
<path d="M1380 1661 c-14 -26 -13 -74 2 -89 7 -7 22 -12 35 -12 30 0 32 39 3
47 -20 5 -25 26 -6 23 11 -2 26 20 26 38 0 20 -48 14 -60 -7z"/>
<path d="M1466 1658 c-19 -27 -20 -39 -4 -73 8 -18 19 -25 41 -25 22 0 28 4
23 16 -3 9 -6 20 -6 25 0 5 -7 9 -16 9 -9 0 -14 5 -12 11 2 6 8 10 13 9 11 -2
25 31 18 43 -9 15 -42 6 -57 -15z"/>
<path d="M1540 1620 l0 -60 35 0 c24 0 35 5 35 15 0 9 -9 15 -22 15 -21 1 -21
2 -5 11 21 12 22 29 2 29 -8 0 -15 5 -15 10 0 6 9 10 20 10 11 0 20 7 20 15 0
10 -11 15 -35 15 l-35 0 0 -60z"/>
<path d="M1627 1673 c-13 -12 -7 -46 11 -66 16 -19 16 -20 0 -14 -13 5 -18 1
-18 -13 0 -28 46 -27 61 1 9 17 7 25 -13 47 -18 19 -19 24 -5 19 12 -5 17 -1
17 13 0 14 -7 20 -23 20 -13 0 -27 -3 -30 -7z"/>
<path d="M1707 1673 c-12 -12 -7 -50 8 -63 16 -13 12 -25 -7 -25 -6 0 -13 -6
-16 -13 -6 -20 59 -11 72 10 8 13 5 23 -14 44 -19 20 -21 26 -7 21 12 -5 17
-1 17 13 0 14 -7 20 -23 20 -13 0 -27 -3 -30 -7z"/>
<path d="M1776 1664 c-3 -9 -3 -20 0 -26 3 -5 6 -25 6 -44 0 -19 3 -34 8 -34
9 0 23 97 15 110 -9 15 -22 12 -29 -6z"/>
<path d="M733 2654 c-8 -21 8 -35 89 -79 68 -37 103 -42 103 -15 0 15 -149
110 -173 110 -7 0 -15 -7 -19 -16z"/>
<path d="M2160 2629 c-66 -42 -80 -54 -80 -76 0 -24 45 -12 115 30 49 30 70
48 70 62 0 33 -35 27 -105 -16z"/>
<path d="M624 2225 c-11 -28 7 -35 95 -35 91 0 121 11 100 37 -17 19 -188 18
-195 -2z"/>
<path d="M2181 2227 c-22 -27 11 -38 106 -35 80 3 88 5 88 23 0 18 -8 20 -91
23 -69 2 -94 -1 -103 -11z"/>
<path d="M807 1845 c-76 -45 -89 -62 -64 -83 18 -15 177 82 177 109 0 30 -28
23 -113 -26z"/>
<path d="M2080 1871 c0 -22 32 -47 105 -83 107 -52 106 3 -2 65 -73 42 -103
47 -103 18z"/>
</g>
</svg>
